<?xml version="1.0" standalone="no"?>
<!DOCTYPE svg PUBLIC "-//W3C//DTD SVG 20010904//EN"
 "http://www.w3.org/TR/2001/REC-SVG-20010904/DTD/svg10.dtd">
<svg version="1.0" xmlns="http://www.w3.org/2000/svg"
 width="130.000000pt" height="130.000000pt" viewBox="0 0 130.000000 130.000000"
 preserveAspectRatio="xMidYMid meet">

<g transform="translate(0.000000,130.000000) scale(0.100000,-0.100000)"
fill="#000000" stroke="none">
<path d="M1 978 c1 -194 4 -311 9 -293 5 17 16 62 25 100 56 245 235 424 480
480 39 9 84 20 100 25 18 5 -99 8 -292 9 l-323 1 1 -322z"/>
<path d="M685 1290 c17 -5 62 -16 100 -25 39 -9 108 -35 155 -57 164 -79 282
-234 325 -428 9 -41 21 -86 25 -100 5 -14 9 115 9 298 l1 322 -322 -1 c-194
-1 -311 -4 -293 -9z"/>
<path d="M386 1088 c-18 -17 -38 -66 -75 -183 -47 -149 -51 -168 -51 -262 0
-154 -27 -143 365 -143 393 0 365 -11 365 146 0 98 -3 113 -51 262 -36 112
-58 163 -75 180 -24 21 -31 22 -239 22 -208 0 -215 -1 -239 -22z m426 -33 c21
-5 29 -21 57 -113 19 -59 36 -115 38 -124 5 -17 -13 -18 -281 -18 -157 0 -286
3 -286 8 1 17 71 226 80 237 11 13 345 22 392 10z m116 -313 c9 -6 12 -33 10
-98 l-3 -89 -310 0 -310 0 -3 89 c-2 65 1 92 10 98 7 4 144 8 303 8 160 0 296
-4 303 -8z"/>
<path d="M690 665 c-10 -12 -10 -18 0 -30 20 -25 55 -15 55 15 0 30 -35 40
-55 15z"/>
<path d="M817 673 c-12 -11 -8 -40 7 -52 28 -23 68 17 45 45 -12 15 -41 19
-52 7z"/>
<path d="M0 317 l0 -317 323 1 c182 0 311 4 297 9 -14 4 -59 16 -100 25 -257
58 -432 236 -489 499 -11 48 -22 90 -25 94 -3 3 -6 -137 -6 -311z"/>
<path d="M1285 608 c-2 -13 -12 -54 -20 -93 -9 -38 -34 -108 -57 -155 -82
-170 -237 -285 -449 -331 -51 -11 -95 -22 -98 -25 -2 -2 140 -4 317 -4 l322 0
0 315 c0 173 -2 315 -5 315 -2 0 -7 -10 -10 -22z"/>
<path d="M230 308 c5 -31 39 -133 46 -135 6 -2 16 19 23 47 7 27 16 50 20 50
4 0 13 -22 20 -50 7 -27 17 -50 22 -50 8 0 22 43 35 110 5 23 4 31 -4 26 -6
-3 -14 -27 -18 -51 -8 -55 -22 -58 -30 -6 -12 75 -37 80 -49 11 -9 -51 -22
-59 -30 -18 -11 55 -16 68 -26 68 -5 0 -9 -1 -9 -2z"/>
<path d="M530 243 l0 -68 32 -2 c41 -3 58 12 58 50 0 36 -27 60 -52 46 -15 -8
-18 -5 -18 16 0 14 -4 25 -10 25 -6 0 -10 -29 -10 -67z m70 -2 c14 -27 2 -51
-26 -51 -20 0 -24 5 -24 28 0 45 30 59 50 23z"/>
<path d="M650 239 l0 -72 40 6 c54 7 70 22 70 67 0 47 -24 70 -73 70 l-37 0 0
-71z m71 51 c12 -7 19 -21 19 -40 0 -46 -10 -60 -41 -60 -28 0 -29 1 -29 55 0
59 9 67 51 45z"/>
<path d="M820 289 c-9 -16 -39 -106 -40 -116 0 -2 4 -3 9 -3 5 0 11 9 14 20 7
28 63 28 72 0 3 -11 11 -20 16 -20 5 0 -2 30 -16 66 -14 37 -25 68 -25 70 0
12 -21 1 -30 -17z m40 -50 c0 -4 -9 -9 -19 -12 -13 -3 -21 1 -24 14 -3 11 -1
19 4 19 5 0 9 8 9 18 1 13 4 11 15 -8 8 -14 14 -28 15 -31z"/>
<path d="M906 288 c17 -57 42 -112 51 -115 6 -2 13 4 15 14 3 10 15 42 27 71
13 34 17 52 9 50 -6 -2 -19 -25 -27 -50 -9 -26 -19 -49 -22 -52 -3 -3 -13 19
-23 49 -9 30 -22 55 -27 55 -6 0 -7 -9 -3 -22z"/>
<path d="M420 245 c-6 -14 -10 -30 -10 -35 0 -15 31 -40 48 -40 23 0 48 17 39
26 -3 4 -13 2 -20 -5 -17 -14 -47 -4 -47 15 0 9 12 14 36 14 31 0 35 3 32 23
-2 17 -11 23 -36 25 -27 3 -34 -1 -42 -23z m64 0 c4 -11 -2 -15 -24 -15 -29 0
-38 9 -23 23 12 12 41 7 47 -8z"/>
</g>
</svg>
