<?xml version="1.0" encoding="UTF-8"?>
<svg version="1.1" xmlns="http://www.w3.org/2000/svg" width="512" height="512">
<path d="M0 0 C-5.66574049 6.92810724 -12.03033639 13.14204142 -18.375 19.4375 C-19.50413955 20.56161467 -20.63304778 21.68596174 -21.76171875 22.81054688 C-24.50515188 25.54305235 -27.25169985 28.27239009 -30 31 C-25.56668372 28.61822341 -25.56668372 28.61822341 -21.13989258 26.22436523 C-17.94493055 24.50400106 -14.78664207 22.90822558 -11.44921875 21.47265625 C-2.57162723 17.61238866 3.11105117 12.47043875 9.58374023 5.33398438 C10.53422241 4.3043457 10.53422241 4.3043457 11.50390625 3.25390625 C12.05892822 2.62814697 12.6139502 2.0023877 13.18579102 1.35766602 C15.55239815 -0.41338798 17.1150532 -0.25716005 20 0 C16.19524578 4.56030824 12.25030379 8.85089392 8 13 C10.56528888 12.40615522 13.12675454 11.80038512 15.6875 11.1875 C16.40873047 11.02185547 17.12996094 10.85621094 17.87304688 10.68554688 C23.67526653 9.28135673 28.00645612 7.40734452 32 2.8125 C34.63520596 0.04758183 34.63520596 0.04758183 37.875 -0.375 C38.57625 -0.25125 39.2775 -0.1275 40 0 C37.525 2.97 37.525 2.97 35 6 C37.77381114 5.57718122 40.54308506 5.13750194 43.3125 4.6875 C44.09818359 4.56955078 44.88386719 4.45160156 45.69335938 4.33007812 C46.8293457 4.14155273 46.8293457 4.14155273 47.98828125 3.94921875 C48.68477783 3.83924561 49.38127441 3.72927246 50.09887695 3.6159668 C52.38835082 2.87417374 53.34101147 1.70014174 55 0 C57.6875 -0.1875 57.6875 -0.1875 60 0 C59.67 0.66 59.34 1.32 59 2 C61.0001827 1.85669423 63.00013825 1.71021706 65 1.5625 C66.670625 1.44068359 66.670625 1.44068359 68.375 1.31640625 C70.67513109 1.1156405 72.97112571 0.8468934 75.25183105 0.48731995 C81.99463248 -0.35865887 88.81197865 -0.13055998 95.59570312 -0.11352539 C97.17321776 -0.11324299 98.75073252 -0.11340228 100.32824707 -0.1139679 C104.59211178 -0.11425382 108.85594814 -0.10839026 113.11980629 -0.10139394 C117.58275838 -0.09512624 122.04571118 -0.0945539 126.50866699 -0.09336853 C134.95157342 -0.09026527 143.39446683 -0.08206546 151.83736753 -0.07201904 C161.45284596 -0.06082665 171.06832501 -0.05533958 180.68380833 -0.05032361 C200.45587947 -0.03988199 220.22793891 -0.02230205 240 0 C240 0.33 240 0.66 240 1 C242.12368444 1.22134176 244.24904024 1.42670007 246.375 1.625 C247.55835938 1.74101562 248.74171875 1.85703125 249.9609375 1.9765625 C251.46527344 1.98816406 251.46527344 1.98816406 253 2 C253.66 1.34 254.32 0.68 255 0 C257.625 -0.125 257.625 -0.125 260 0 C259.34 0.99 258.68 1.98 258 3 C264.48254063 5.05501269 264.48254063 5.05501269 271 4 C271.66 3.319375 272.32 2.63875 273 1.9375 C275 -0 275 -0 277.75 -0.25 C278.4925 -0.1675 279.235 -0.085 280 0 C278.35 1.98 276.7 3.96 275 6 C276.40945366 6.56016748 277.8280031 7.09748502 279.25 7.625 C280.03890625 7.92664063 280.8278125 8.22828125 281.640625 8.5390625 C283.97819581 9.19569769 283.97819581 9.19569769 286.08203125 8.3125 C288.19805922 6.86446457 289.73352042 5.28754983 291.4375 3.375 C294.62626266 0.05566301 294.62626266 0.05566301 297.9375 -0.4375 C298.618125 -0.293125 299.29875 -0.14875 300 0 C299.06409496 1.1055189 298.12620142 2.20935453 297.1875 3.3125 C296.66542969 3.92738281 296.14335937 4.54226562 295.60546875 5.17578125 C294.12827531 6.85424679 292.59960869 8.43882034 291 10 C292.5778125 10.7734375 292.5778125 10.7734375 294.1875 11.5625 C294.77917969 11.85253906 295.37085938 12.14257812 295.98046875 12.44140625 C298.82638165 13.22857365 300.20676262 13.02625611 303 12 C305.77638501 9.66449008 308.12482708 6.91596109 310.5390625 4.21679688 C314.41711411 0.07523663 314.41711411 0.07523663 317.875 -0.37109375 C318.57625 -0.24863281 319.2775 -0.12617187 320 0 C315.59156563 5.29012124 310.92440206 10.18808428 306 15 C307.23884319 15.72767003 308.49168341 16.43154815 309.75 17.125 C310.79414062 17.71667969 310.79414062 17.71667969 311.859375 18.3203125 C313.97038069 19.23401928 313.97038069 19.23401928 315.88793945 18.28710938 C318.31206386 16.80982537 319.98988057 15.15432379 321.93359375 13.0859375 C322.66513672 12.32539063 323.39667969 11.56484375 324.15039062 10.78125 C325.67718788 9.17491847 327.19802589 7.56290197 328.71289062 5.9453125 C329.44572266 5.18734375 330.17855469 4.429375 330.93359375 3.6484375 C331.59415771 2.94895996 332.25472168 2.24948242 332.93530273 1.52880859 C335.46935334 -0.34753348 336.91757109 -0.31296756 340 0 C335.76183463 5.06623768 331.32591037 9.80038069 326.625 14.4375 C325.98433594 15.07365234 325.34367187 15.70980469 324.68359375 16.36523438 C323.12469121 17.91250332 321.56348584 19.45736492 320 21 C321.60875 22.0209375 321.60875 22.0209375 323.25 23.0625 C323.85328125 23.44535156 324.4565625 23.82820313 325.078125 24.22265625 C326.94710983 25.12647552 326.94710983 25.12647552 328.89282227 24.95532227 C332.045762 23.5258873 334.13096007 21.13509997 336.46484375 18.65234375 C337.52252858 17.56159884 338.58047946 16.47111186 339.63867188 15.38085938 C341.29327296 13.65788025 342.94358762 11.93109013 344.58862305 10.19897461 C346.18235791 8.52675407 347.79120431 6.87027644 349.40234375 5.21484375 C349.88895981 4.6930101 350.37557587 4.17117645 350.87693787 3.63352966 C353.20355203 1.256815 354.48671728 0.05870234 357.84985352 -0.32592773 C358.55940186 -0.21837158 359.2689502 -0.11081543 360 0 C354.75541414 6.36590304 348.97902678 12.13570612 343.125 17.9375 C342.14039081 18.91708237 341.156014 19.89689837 340.171875 20.87695312 C337.78351797 23.25360252 335.39284788 25.62787356 333 28 C336.96 30.475 336.96 30.475 341 33 C345.72979533 29.04074325 350.13849934 24.94880708 354.4140625 20.5078125 C355.5983633 19.29629305 356.7832768 18.08537228 357.96875 16.875 C359.80920151 14.99110435 361.64545117 13.10374852 363.47167969 11.20605469 C365.25361579 9.35766385 367.05094249 7.52548238 368.8515625 5.6953125 C369.66580185 4.83765793 369.66580185 4.83765793 370.49649048 3.962677 C372.94204055 1.50009206 374.37368243 0.07729567 377.88427734 -0.35595703 C378.58246582 -0.23849121 379.2806543 -0.12102539 380 0 C375.97251947 4.83298806 371.75620587 9.38110004 367.2890625 13.80859375 C366.67606293 14.42017838 366.06306335 15.031763 365.43148804 15.66188049 C363.49835436 17.58947559 361.56175013 19.51353928 359.625 21.4375 C358.30315301 22.75432404 356.98153628 24.07137926 355.66015625 25.38867188 C352.44275701 28.59512373 349.22224319 31.79841629 346 35 C347.33332095 38.99996286 349.4957827 39.83782337 353 42 C353.51507614 41.4738208 354.03015228 40.9476416 354.56083679 40.40551758 C359.41774526 35.4484139 364.2866524 30.50338539 369.16929913 25.57164001 C371.67910991 23.03573822 374.18406028 20.49539871 376.6784668 17.94433594 C379.54655308 15.01151836 382.43465505 12.09916034 385.32421875 9.1875 C386.21711105 8.26880127 387.11000336 7.35010254 388.029953 6.40356445 C388.87044693 5.56269287 389.71094086 4.72182129 390.5769043 3.85546875 C391.31192673 3.10934326 392.04694916 2.36321777 392.804245 1.59448242 C395.42220624 -0.30659177 396.83543475 -0.3429439 400 0 C395.37508621 5.55439924 390.44639036 10.68525669 385.3203125 15.77734375 C384.10116653 16.99436729 384.10116653 16.99436729 382.85739136 18.23597717 C380.28228262 20.8055259 377.7037038 23.37155968 375.125 25.9375 C373.36956054 27.68791929 371.61434983 29.438568 369.859375 31.18945312 C365.57555918 35.46229302 361.28889528 39.73225899 357 44 C358.35937085 46.8605891 359.64520469 48.85927699 362 51 C365.48916423 49.50579408 367.72491256 47.51265384 370.38549805 44.82568359 C371.24286057 43.96494232 372.10022308 43.10420105 372.98356628 42.21737671 C374.35875175 40.8220018 374.35875175 40.8220018 375.76171875 39.3984375 C376.71716593 38.43671754 377.67313167 37.47551249 378.6295929 36.51480103 C381.14052471 33.99059193 383.64581903 31.46086758 386.14953613 28.92950439 C390.16642818 24.86941139 394.19015266 20.81611586 398.21705055 16.76594925 C399.62483961 15.34790319 401.02907311 13.92633018 402.43327332 12.50473022 C403.28117935 11.65029327 404.12908539 10.79585632 405.00268555 9.91552734 C405.7522905 9.15766937 406.50189545 8.3998114 407.2742157 7.61898804 C409 6 409 6 410 6 C410.35600542 9.20041559 410.29877843 10.59117367 408.36755371 13.23371887 C407.22171814 14.36289986 407.22171814 14.36289986 406.05273438 15.51489258 C405.19184204 16.37540726 404.33094971 17.23592194 403.44396973 18.12251282 C402.50339722 19.0372789 401.56282471 19.95204498 400.59375 20.89453125 C399.62859273 21.8503597 398.66453602 22.80730062 397.70153809 23.76530457 C395.16752314 26.28025517 392.61885354 28.77982864 390.0668335 31.27648926 C387.46391887 33.82819934 384.87515189 36.39417413 382.28515625 38.95898438 C377.20385802 43.98670516 372.10694028 48.99831661 367 54 C368.26941497 57.91402949 369.51167694 59.79072873 373 62 C373.6731852 61.32348389 373.6731852 61.32348389 374.35997009 60.63330078 C379.01229832 55.95892709 383.66808115 51.28801536 388.32592773 46.61914062 C390.06608355 44.87394182 391.80534274 43.12784853 393.54370117 41.38085938 C396.03592059 38.87657281 398.53129871 36.3754728 401.02734375 33.875 C401.80963852 33.08754395 402.59193329 32.30008789 403.39793396 31.48876953 C404.47894127 30.40764893 404.47894127 30.40764893 405.58178711 29.3046875 C406.53776039 28.3453833 406.53776039 28.3453833 407.51304626 27.36669922 C409 26 409 26 410 26 C410.24684299 28.862276 410.37307146 30.46371828 408.70249939 32.86512756 C408.09547684 33.44596603 407.48845428 34.0268045 406.86303711 34.62524414 C406.17910385 35.29266129 405.49517059 35.96007843 404.79051208 36.64772034 C403.67024376 37.70575111 403.67024376 37.70575111 402.52734375 38.78515625 C401.77030655 39.52326035 401.01326935 40.26136444 400.23329163 41.02183533 C397.81295101 43.38104088 395.37734698 45.72348307 392.9375 48.0625 C389.72413061 51.14335931 386.5272986 54.24001885 383.33984375 57.34765625 C382.59097397 58.05503433 381.84210419 58.76241241 381.07054138 59.4912262 C380.38976028 60.15549118 379.70897919 60.81975616 379.00756836 61.50415039 C378.4013414 62.08419327 377.79511444 62.66423615 377.17051697 63.26185608 C375.77758137 64.93619298 375.77758137 64.93619298 376.18312073 67.0466156 C377.32269488 69.77165275 379.08388365 71.77483262 381 74 C382.26444946 72.72769531 382.26444946 72.72769531 383.55444336 71.4296875 C386.66976906 68.29632062 389.78835496 65.16621627 392.90795898 62.03710938 C394.26009477 60.67993134 395.61133353 59.321859 396.96166992 57.96289062 C398.89789891 56.01459127 400.83728546 54.06948531 402.77734375 52.125 C403.38464828 51.51253418 403.99195282 50.90006836 404.61766052 50.26904297 C406.05958408 48.82692511 407.52716559 47.41053404 409 46 C409.33 46 409.66 46 410 46 C410.36914062 48.1003418 410.36914062 48.1003418 410 51 C408.09673411 53.33914978 406.25789339 55.32495196 404.09375 57.39453125 C403.49445679 57.98674973 402.89516357 58.5789682 402.27770996 59.18913269 C400.36322907 61.07565279 398.4320948 62.94403994 396.5 64.8125 C395.1980824 66.08933716 393.89728667 67.36731929 392.59765625 68.64648438 C389.41129715 71.77775159 386.20989153 74.892868 383 78 C384.65 80.97 386.3 83.94 388 87 C388.63091553 86.36384766 389.26183105 85.72769531 389.91186523 85.07226562 C392.24500068 82.72212827 394.58034105 80.37422843 396.91723633 78.02783203 C397.9298551 77.01017212 398.94157623 75.99161821 399.95239258 74.97216797 C401.4021294 73.51035593 402.85502208 72.05174758 404.30859375 70.59375 C405.18314209 69.71396484 406.05769043 68.83417969 406.95874023 67.92773438 C409 66 409 66 410 66 C410.42074595 69.37911591 410.26699378 70.65045828 408.1640625 73.40356445 C407.32617188 74.215271 406.48828125 75.02697754 405.625 75.86328125 C404.72265625 76.74951172 403.8203125 77.63574219 402.890625 78.54882812 C401.45976563 79.9168457 401.45976563 79.9168457 400 81.3125 C399.03532198 82.25208992 398.07176615 83.19283347 397.109375 84.13476562 C394.75038867 86.43477729 392.38054213 88.72234034 390 91 C391.98 95.95 391.98 95.95 394 101 C395.07121094 99.9171875 396.14242188 98.834375 397.24609375 97.71875 C398.64309809 96.31236979 400.04024063 94.90612684 401.4375 93.5 C402.14455078 92.78457031 402.85160156 92.06914063 403.58007812 91.33203125 C404.59038086 90.31689453 404.59038086 90.31689453 405.62109375 89.28125 C406.55586548 88.33862305 406.55586548 88.33862305 407.50952148 87.37695312 C409 86 409 86 410 86 C410.4453125 88.078125 410.4453125 88.078125 410 91 C407.29585857 94.17741527 404.00092587 96.81278864 400.80078125 99.4765625 C398.85359143 101.24673506 397.33139722 102.72567091 396 105 C395.96865791 109.03488224 397.21373575 112.42747151 399 116 C400.06541016 114.9171875 400.06541016 114.9171875 401.15234375 113.8125 C402.07144531 112.884375 402.99054688 111.95625 403.9375 111 C404.85402344 110.071875 405.77054687 109.14375 406.71484375 108.1875 C409 106 409 106 410 106 C410.28515625 108.23046875 410.28515625 108.23046875 410 111 C407.99609375 113.17578125 407.99609375 113.17578125 405.4375 115.3125 C402.11404382 118.24983778 402.11404382 118.24983778 400.58984375 122.21875 C400.85894239 124.61231912 400.85894239 124.61231912 402 128 C402.33 129.32 402.66 130.64 403 132 C405.31 130.02 407.62 128.04 410 126 C410.375 128.0625 410.375 128.0625 410 131 C409.017387 132.07779489 407.99045628 133.11581557 406.9375 134.125 C404.66591616 136.52426068 404.0276807 137.54419108 403.82421875 140.89453125 C404.09505178 143.63451734 404.46298378 146.30027298 405 149 C406.65 148.01 408.3 147.02 410 146 C410.1875 148.25 410.1875 148.25 410 151 C409.484375 151.598125 408.96875 152.19625 408.4375 152.8125 C406.72114741 154.95440359 406.72114741 154.95440359 407.14453125 157.796875 C407.36496094 158.77140625 407.58539063 159.7459375 407.8125 160.75 C408.02519531 161.73484375 408.23789062 162.7196875 408.45703125 163.734375 C408.63621094 164.48203125 408.81539063 165.2296875 409 166 C409.33 166 409.66 166 410 166 C410.125 170.75 410.125 170.75 409 173 C409.08800272 174.90858442 409.24281079 176.81425075 409.42941284 178.71572876 C410.05174544 186.00691514 410.14091162 193.23404474 410.12939453 200.54833984 C410.1307537 201.95447332 410.1325365 203.36060643 410.13470459 204.76673889 C410.13921852 208.54579038 410.13751428 212.3248142 410.1343255 216.1038661 C410.13176939 220.08597855 410.1341485 224.06808886 410.13571167 228.05020142 C410.13752438 234.73594583 410.13515117 241.42167915 410.13037109 248.10742188 C410.12493468 255.79919589 410.12669027 263.49094336 410.1321975 271.18271673 C410.13675968 277.82434958 410.13736394 284.46597452 410.13475883 291.10760844 C410.13321248 295.05773962 410.13295655 299.00785839 410.13629532 302.95798874 C410.13921932 306.6763347 410.13711668 310.39464703 410.13140106 314.11298943 C410.12948342 316.10073172 410.13238878 318.08847691 410.13552856 320.07621765 C410.11548761 328.76035743 409.67150633 337.34542349 409 346 C409.33 346 409.66 346 410 346 C410.125 348.375 410.125 348.375 410 351 C409.34 351.66 408.68 352.32 408 353 C407.45051478 354.82796601 407.45051478 354.82796601 407.1484375 356.9140625 C406.95507812 358.05488281 406.95507812 358.05488281 406.7578125 359.21875 C406.63148438 360.0128125 406.50515625 360.806875 406.375 361.625 C406.2409375 362.42679687 406.106875 363.22859375 405.96875 364.0546875 C405.63865211 366.03527484 405.31838917 368.01749675 405 370 C406.65 368.68 408.3 367.36 410 366 C410.203125 368.296875 410.203125 368.296875 410 371 C408.609375 372.640625 408.609375 372.640625 406.75 374.25 C401.12781465 380.13447797 400.41446721 388.26875067 399 396 C399.71027344 395.278125 400.42054688 394.55625 401.15234375 393.8125 C402.07144531 392.884375 402.99054688 391.95625 403.9375 391 C405.31228516 389.6078125 405.31228516 389.6078125 406.71484375 388.1875 C409 386 409 386 410 386 C410.40234375 388.125 410.40234375 388.125 410 391 C407.90714454 393.14346505 405.82436666 395.05367557 403.5625 397 C394.90231289 404.94968662 390.47489145 414.88147101 387 426 C387 426.66 387 427.32 387 428 C387.99181274 427.00033203 387.99181274 427.00033203 389.00366211 425.98046875 C391.44861419 423.51851542 393.89577144 421.05879836 396.34448242 418.60058594 C397.40560358 417.53442344 398.4658272 416.46736689 399.52514648 415.39941406 C401.04438223 413.86810398 402.56677416 412.3399957 404.08984375 410.8125 C405.46450806 409.42998047 405.46450806 409.42998047 406.86694336 408.01953125 C409 406 409 406 410 406 C410.26400783 408.92263685 410.35607608 410.48897725 408.64916992 412.93864441 C408.01599854 413.55468033 407.38282715 414.17071625 406.73046875 414.80541992 C406.01552246 415.51353317 405.30057617 416.22164642 404.56396484 416.95121765 C403.77973145 417.70337051 402.99549805 418.45552338 402.1875 419.23046875 C401.38521973 420.02093094 400.58293945 420.81139313 399.75634766 421.62580872 C397.18243613 424.15846566 394.59238514 426.67376674 392 429.1875 C389.43868754 431.68575807 386.88114372 434.18765657 384.3293457 436.69563293 C382.74152045 438.25466277 381.14796366 439.80788573 379.54760742 441.35404968 C374.88446293 445.91456769 370.71236846 450.66684471 366.7149353 455.8223114 C364.50741079 458.62550809 362.15602652 461.10954903 359.625 463.625 C358.79226563 464.46289062 357.95953125 465.30078125 357.1015625 466.1640625 C354.78126717 468.37566143 352.31764277 470.27890905 349.76171875 472.2109375 C344.64051599 476.25726095 340.11181873 480.78253009 335.54296875 485.4375 C334.78665161 486.20718109 334.03033447 486.97686218 333.25109863 487.76986694 C330.08556728 490.99986289 326.92681538 494.23615331 323.78149414 497.48583984 C321.462991 499.87661109 319.12929686 502.25166341 316.79296875 504.625 C315.73036079 505.73572876 315.73036079 505.73572876 314.64628601 506.86889648 C313.97821426 507.54380127 313.31014252 508.21870605 312.62182617 508.9140625 C311.75106697 509.8105249 311.75106697 509.8105249 310.86271667 510.72509766 C308.46308133 512.36748416 306.84640017 512.24145833 304 512 C308.81867247 506.19108254 314.01256408 500.86934448 319.375 495.5625 C320.20644531 494.73556641 321.03789062 493.90863281 321.89453125 493.05664062 C323.9274104 491.03544469 325.96259963 489.01663665 328 487 C314.50598005 491.66900802 303.0200843 496.1401405 293.55639648 507.17211914 C289.46886698 511.93039761 289.46886698 511.93039761 286.10546875 512.4296875 C285.41066406 512.28789063 284.71585937 512.14609375 284 512 C284.91447846 510.91481889 285.83170407 509.83195262 286.75 508.75 C287.26046875 508.14671875 287.7709375 507.5434375 288.296875 506.921875 C290.12128625 504.8631357 292.03830322 502.92758032 294 501 C280.59752288 502.76193921 280.59752288 502.76193921 270.2578125 510.58203125 C269 512 269 512 266.0625 512.4375 C265.381875 512.293125 264.70125 512.14875 264 512 C265.32 510.35 266.64 508.7 268 507 C265.58086872 507.25575393 263.16589461 507.52893381 260.75 507.8125 C260.06808594 507.88275391 259.38617188 507.95300781 258.68359375 508.02539062 C254.56375092 508.52537155 252.14376126 509.32198115 249 512 C246.25 512.1875 246.25 512.1875 244 512 C244 511.67 244 511.34 244 511 C239.31102649 510.90805934 234.74754288 511.08106805 230.07505798 511.49581909 C223.03588831 512.05137285 216.04478344 512.14100072 208.98657227 512.12939453 C207.6379288 512.13075392 206.28928571 512.13253685 204.94064331 512.13470459 C201.31867835 512.13921545 197.69674227 512.1375157 194.07477689 512.1343255 C190.25769052 512.13176823 186.44060638 512.13414877 182.6235199 512.13571167 C176.21604983 512.13752384 169.80859135 512.13515237 163.40112305 512.13037109 C156.02856567 512.12493265 148.65603598 512.12669196 141.28347927 512.1321975 C134.91701891 512.13675865 128.55056681 512.1373645 122.18410534 512.13475883 C118.39776751 512.13321219 114.61144262 512.1329574 110.82510567 512.13629532 C107.2618889 512.13921788 103.69870726 512.1371192 100.13549423 512.13140106 C98.22986141 512.12948218 96.32422556 512.13238987 94.41859436 512.13552856 C87.12377446 512.11794766 79.93018882 511.76328249 72.66294765 511.11654472 C71.78417493 511.07808496 70.9054022 511.03962521 70 511 C69.67 511.33 69.34 511.66 69 512 C67.33382885 512.04063832 65.66611905 512.042721 64 512 C63.67 511.34 63.34 510.68 63 510 C60.52141361 509.41500021 60.52141361 509.41500021 57.625 509.1875 C56.15933594 509.02314453 56.15933594 509.02314453 54.6640625 508.85546875 C51.96162842 508.72702154 51.96162842 508.72702154 50.31640625 510.4765625 C49.66478516 511.23066406 49.66478516 511.23066406 49 512 C46.3125 512.1875 46.3125 512.1875 44 512 C44.99 510.68 45.98 509.36 47 508 C42.99461761 506.92412059 39.15790649 506.06388589 35 506 C32.87936396 507.30370439 31.75051106 508.62952562 30.24609375 510.59375 C29 512 29 512 26.125 512.375 C25.42375 512.25125 24.7225 512.1275 24 512 C25.98 509.69 27.96 507.38 30 505 C26.37 504.01 22.74 503.02 19 502 C18.33613281 502.721875 17.67226562 503.44375 16.98828125 504.1875 C16.10527344 505.115625 15.22226563 506.04375 14.3125 507 C13.44238281 507.928125 12.57226562 508.85625 11.67578125 509.8125 C9 512 9 512 6.16796875 512.3125 C5.45253906 512.209375 4.73710938 512.10625 4 512 C7.20760251 508.19364503 10.40746109 504.45436433 14 501 C12.948125 500.484375 11.89625 499.96875 10.8125 499.4375 C10.22082031 499.14746094 9.62914063 498.85742188 9.01953125 498.55859375 C6.14457502 497.76339309 4.82324056 497.94180149 2 499 C-0.99296076 501.54670465 -3.55471336 504.51522768 -6.18359375 507.42773438 C-10.41070397 511.91841735 -10.41070397 511.91841735 -13.90625 512.40234375 C-14.5971875 512.26957031 -15.288125 512.13679687 -16 512 C-11.30233025 506.33870569 -6.25276628 501.14771096 -1 496 C-4.28463659 493.81024227 -7.20696275 493.00193437 -11 492 C-11.57967529 492.60585938 -12.15935059 493.21171875 -12.7565918 493.8359375 C-14.91768471 496.08235093 -17.08991006 498.31721045 -19.27026367 500.54492188 C-20.67278319 501.98489024 -22.06206794 503.43771064 -23.45117188 504.890625 C-24.33740234 505.79296875 -25.22363281 506.6953125 -26.13671875 507.625 C-26.94842529 508.46289062 -27.76013184 509.30078125 -28.59643555 510.1640625 C-31.34954172 512.26699378 -32.62088409 512.42074595 -36 512 C-31.61557474 506.74825074 -26.99157907 501.86777527 -22.125 497.0625 C-21.09246094 496.03672852 -21.09246094 496.03672852 -20.0390625 494.99023438 C-18.36166489 493.32448536 -16.68196209 491.6611378 -15 490 C-17.85306797 487.67527795 -20.54074837 486.2491742 -24 485 C-24.79172607 485.81791016 -25.58345215 486.63582031 -26.39916992 487.47851562 C-29.34033467 490.51019121 -32.29802587 493.52527974 -35.26098633 496.53564453 C-36.54094774 497.84074776 -37.81638546 499.15030361 -39.0871582 500.46435547 C-40.91486726 502.35272648 -42.75825983 504.22447403 -44.60546875 506.09375 C-45.45264717 506.97963806 -45.45264717 506.97963806 -46.31694031 507.88342285 C-50.34765246 511.91695298 -50.34765246 511.91695298 -53.8996582 512.36914062 C-54.93932739 512.18641602 -54.93932739 512.18641602 -56 512 C-50.61359076 505.44622903 -44.64114873 499.52753365 -38.625 493.5625 C-37.59221405 492.53474017 -36.55966009 491.50674715 -35.52734375 490.47851562 C-33.02089713 487.98298402 -30.5113292 485.49061918 -28 483 C-30.51419515 480.30621949 -32.67240077 478.55194754 -36 477 C-36.42737961 477.43848267 -36.85475922 477.87696533 -37.29508972 478.32873535 C-41.74123371 482.88540099 -46.2048064 487.42444556 -50.67895508 491.95361328 C-52.34691546 493.64673511 -54.01036304 495.34431495 -55.66918945 497.04638672 C-58.05291216 499.49068235 -60.45234739 501.91854271 -62.85546875 504.34375 C-63.5952446 505.10933228 -64.33502045 505.87491455 -65.09721375 506.66369629 C-65.79756241 507.36442261 -66.49791107 508.06514893 -67.21948242 508.78710938 C-67.8301506 509.40888062 -68.44081879 510.03065186 -69.06999207 510.67126465 C-71.51374784 512.3536954 -73.09494298 512.25769641 -76 512 C-71.83787194 507.0298616 -67.49969324 502.37566053 -62.88671875 497.82421875 C-61.90418877 496.8473687 -61.90418877 496.8473687 -60.90180969 495.8507843 C-58.83280619 493.79388773 -56.76056866 491.74029887 -54.6875 489.6875 C-51.93855473 486.96509322 -49.19290355 484.23942583 -46.44921875 481.51171875 C-45.81698898 480.88778732 -45.18475922 480.2638559 -44.53337097 479.62101746 C-41.38124597 476.60564561 -41.38124597 476.60564561 -39 473 C-41.93823196 471.47647232 -44.92254092 470.21465217 -48 469 C-48.52760422 469.53870728 -49.05520844 470.07741455 -49.59880066 470.63244629 C-54.57346064 475.70729595 -59.56006705 480.77002617 -64.56045055 485.81951141 C-67.1307921 488.41594551 -69.69627752 491.01682303 -72.2512207 493.62841797 C-74.71712931 496.14865812 -77.19505808 498.65648119 -79.68178749 501.15617371 C-81.0889034 502.57702298 -82.48329049 504.01044141 -83.87748718 505.44396973 C-84.73800186 506.30486206 -85.59851654 507.16575439 -86.48510742 508.05273438 C-87.61428841 509.19856995 -87.61428841 509.19856995 -88.76628113 510.36755371 C-91.40882633 512.29877843 -92.79958441 512.35600542 -96 512 C-91.24863726 506.28299462 -86.15385413 501.02310577 -80.8828125 495.78515625 C-80.02565643 494.92941513 -79.16850037 494.07367401 -78.28536987 493.19200134 C-75.56760046 490.47979535 -72.84636109 487.7711017 -70.125 485.0625 C-68.27320658 483.21572631 -66.42164166 481.36872347 -64.5703125 479.52148438 C-60.04951565 475.01166799 -55.52587054 470.50472431 -51 466 C-52.35937085 463.1394109 -53.64520469 461.14072301 -56 459 C-59.40301815 460.47016505 -61.60291333 462.36467961 -64.2019043 464.99072266 C-65.01922531 465.81142242 -65.83654633 466.63212219 -66.67863464 467.47769165 C-67.5516774 468.36419403 -68.42472015 469.25069641 -69.32421875 470.1640625 C-70.22622513 471.07127045 -71.12823151 471.97847839 -72.05757141 472.91317749 C-74.44938918 475.31979113 -76.8370554 477.73036406 -79.22241211 480.14337158 C-82.59370366 483.55272429 -85.97027428 486.95682133 -89.3495636 490.35824585 C-91.14851383 492.16951731 -92.94478554 493.98345349 -94.73820496 495.80020142 C-95.54606949 496.61459686 -96.35393402 497.42899231 -97.1862793 498.26806641 C-97.90035446 498.99039459 -98.61442963 499.71272278 -99.35014343 500.4569397 C-101 502 -101 502 -102 502 C-102.33052605 498.87517196 -102.32687777 497.44556954 -100.43675232 494.86912537 C-99.70537552 494.16393265 -98.97399872 493.45873993 -98.22045898 492.73217773 C-97.39638046 491.92461533 -96.57230194 491.11705292 -95.72325134 490.28501892 C-94.82328934 489.42654861 -93.92332733 488.56807831 -92.99609375 487.68359375 C-92.08368423 486.79011734 -91.17127472 485.89664093 -90.23121643 484.97608948 C-87.31159986 482.11765691 -84.37711551 479.27531997 -81.4375 476.4375 C-77.56723283 472.70108127 -73.7147645 468.94742205 -69.87109375 465.18359375 C-68.96910751 464.32309921 -68.06712128 463.46260468 -67.13780212 462.57603455 C-66.31687576 461.7716243 -65.4959494 460.96721405 -64.65014648 460.13842773 C-63.91956528 459.43403061 -63.18898407 458.72963348 -62.43626404 458.00389099 C-60.75997652 456.12163774 -60.75997652 456.12163774 -61.17420959 453.88197327 C-62.1586927 451.63833993 -63.44874958 449.88847877 -65 448 C-67.99897368 449.34477412 -70.07181947 450.82976836 -72.37573242 453.16455078 C-73.01286667 453.80506378 -73.65000092 454.44557678 -74.30644226 455.10549927 C-74.982621 455.79513763 -75.65879974 456.484776 -76.35546875 457.1953125 C-77.40883171 458.25647781 -77.40883171 458.25647781 -78.48347473 459.33908081 C-80.72295134 461.59635761 -82.95561837 463.86021534 -85.1875 466.125 C-87.43096471 468.39603159 -89.67585185 470.66560997 -91.92366028 472.93234253 C-93.32198317 474.34297831 -94.71762532 475.75627716 -96.11039734 477.1723938 C-96.7380751 477.80660248 -97.36575287 478.44081116 -98.01245117 479.09423828 C-98.84373787 479.93790451 -98.84373787 479.93790451 -99.69181824 480.7986145 C-101 482 -101 482 -102 482 C-102.23539823 479.17121829 -102.364692 477.5397223 -100.74719238 475.1459198 C-99.8678302 474.2832122 -99.8678302 474.2832122 -98.97070312 473.40307617 C-98.31001831 472.74276901 -97.6493335 472.08246185 -96.96862793 471.40214539 C-95.88587585 470.35810295 -95.88587585 470.35810295 -94.78125 469.29296875 C-94.04878052 468.56757401 -93.31631104 467.84217926 -92.56164551 467.09480286 C-90.21923133 464.78037927 -87.86003556 462.48393892 -85.5 460.1875 C-83.90901993 458.62159639 -82.31916152 457.05455227 -80.73046875 455.48632812 C-76.83323183 451.64422268 -72.9220725 447.8167406 -69 444 C-69.66 442.88625 -70.32 441.7725 -71 440.625 C-73 437.25 -73 437.25 -73 435 C-79.49987147 440.47182472 -85.47638287 446.3892957 -91.4375 452.4375 C-93.22559426 454.25093932 -95.01583357 456.06226701 -96.80859375 457.87109375 C-97.98119751 459.06109985 -97.98119751 459.06109985 -99.17749023 460.27514648 C-101 462 -101 462 -102 462 C-102.34179688 459.87231445 -102.34179688 459.87231445 -102 457 C-100.23735209 454.801378 -98.55455769 452.97079345 -96.53125 451.04296875 C-95.97634888 450.49514236 -95.42144775 449.94731598 -94.84973145 449.38288879 C-93.07788986 447.63899497 -91.28945211 445.91330046 -89.5 444.1875 C-88.29443656 443.00701876 -87.08999507 441.82539056 -85.88671875 440.64257812 C-82.93732409 437.74825784 -79.97292495 434.87013765 -77 432 C-77.31710938 431.05898438 -77.63421875 430.11796875 -77.9609375 429.1484375 C-78.74671253 426.76748009 -79.43712469 424.43912634 -80 422 C-85.90927838 426.90952131 -91.32399372 432.24765558 -96.6940918 437.73120117 C-98.11224156 439.17123012 -99.55398275 440.58795672 -101 442 C-101.33 442 -101.66 442 -102 442 C-102.38746167 438.70402669 -102.28893524 437.38296861 -100.25585938 434.68823242 C-99.45986328 433.91842041 -98.66386719 433.1486084 -97.84375 432.35546875 C-96.55791016 431.09379883 -96.55791016 431.09379883 -95.24609375 429.80664062 C-93.88677734 428.51016602 -93.88677734 428.51016602 -92.5 427.1875 C-91.14068359 425.86202148 -91.14068359 425.86202148 -89.75390625 424.50976562 C-87.51339451 422.32821472 -85.2620652 420.1591577 -83 418 C-84.98 413.05 -84.98 413.05 -87 408 C-87.99902344 409.010625 -88.99804688 410.02125 -90.02734375 411.0625 C-91.33059803 412.37513021 -92.63399057 413.68762316 -93.9375 415 C-94.59685547 415.66773438 -95.25621094 416.33546875 -95.93554688 417.0234375 C-96.87817383 417.97089844 -96.87817383 417.97089844 -97.83984375 418.9375 C-98.42113037 419.52402344 -99.00241699 420.11054688 -99.60131836 420.71484375 C-101 422 -101 422 -102 422 C-102.4140625 419.890625 -102.4140625 419.890625 -102 417 C-100.02963696 414.65894414 -97.68454012 412.74924577 -95.375 410.75 C-90.72778558 406.71252932 -90.72778558 406.71252932 -88.546875 401.22265625 C-89.1074315 398.88574167 -89.79547456 397.07235282 -91 395 C-91.33 394.34 -91.66 393.68 -92 393 C-92.63808594 393.6496875 -93.27617188 394.299375 -93.93359375 394.96875 C-95.17302734 396.22171875 -95.17302734 396.22171875 -96.4375 397.5 C-97.67306641 398.75296875 -97.67306641 398.75296875 -98.93359375 400.03125 C-101 402 -101 402 -102 402 C-102.25390625 399.73046875 -102.25390625 399.73046875 -102 397 C-100.21484375 395.11328125 -100.21484375 395.11328125 -97.9375 393.3125 C-94.74023001 390.38878146 -94.74023001 390.38878146 -93.65625 386.33203125 C-94.00638292 382.96200194 -94.47918443 380.04163115 -96 377 C-97.98 378.65 -99.96 380.3 -102 382 C-102.3125 379.8125 -102.3125 379.8125 -102 377 C-101.13375 376.319375 -100.2675 375.63875 -99.375 374.9375 C-96.66317039 372.24206233 -96.66317039 372.24206233 -97.11328125 369.015625 C-97.6378852 365.97506333 -98.25064642 362.99264135 -99 360 C-99.99 360.66 -100.98 361.32 -102 362 C-102.125 359.625 -102.125 359.625 -102 357 C-101.34 356.34 -100.68 355.68 -100 355 C-99.97864622 351.86454234 -99.97864622 351.86454234 -100.375 348.375 C-100.48585938 347.18648438 -100.59671875 345.99796875 -100.7109375 344.7734375 C-100.85402344 343.40058594 -100.85402344 343.40058594 -101 342 C-101.33 342 -101.66 342 -102 342 C-102.04685424 320.76301394 -102.08205435 299.52603648 -102.10362434 278.28900909 C-102.11390873 268.42686732 -102.1279144 258.56475779 -102.15087891 248.70263672 C-102.1709001 240.10037542 -102.18373703 231.49813748 -102.18817699 222.89585352 C-102.19076967 218.34687562 -102.19680351 213.79796453 -102.21146011 209.24900818 C-102.22518244 204.95463463 -102.22919352 200.66035447 -102.22621536 196.36596107 C-102.22675905 194.80204572 -102.23064827 193.23812676 -102.23841095 191.67423058 C-102.28734493 181.29382827 -101.51925213 171.27052786 -100 161 C-100.66 161.33 -101.32 161.66 -102 162 C-102.1875 159.6875 -102.1875 159.6875 -102 157 C-101.52071045 156.53231201 -101.0414209 156.06462402 -100.54760742 155.58276367 C-98.69454438 153.6876055 -98.45961908 152.57758749 -98.05078125 149.98828125 C-97.92509766 149.23095703 -97.79941406 148.47363281 -97.66992188 147.69335938 C-97.55197266 146.90767578 -97.43402344 146.12199219 -97.3125 145.3125 C-97.18294922 144.51521484 -97.05339844 143.71792969 -96.91992188 142.89648438 C-96.60242604 140.93271386 -96.29976675 138.96655489 -96 137 C-97.98 138.65 -99.96 140.3 -102 142 C-102.4375 139.9375 -102.4375 139.9375 -102 137 C-100.546875 135.54882812 -100.546875 135.54882812 -98.6875 133.96875 C-94.30808191 129.74476822 -93.03281158 125.34794699 -91.5625 119.5625 C-91.30791016 118.64017578 -91.05332031 117.71785156 -90.79101562 116.76757812 C-90.17284555 114.51650596 -89.57662605 112.26200057 -89 110 C-89.85464844 110.86625 -90.70929688 111.7325 -91.58984375 112.625 C-92.70559788 113.75013021 -93.82149043 114.87512316 -94.9375 116 C-95.50146484 116.57234375 -96.06542969 117.1446875 -96.64648438 117.734375 C-98.07878776 119.17525505 -99.53741129 120.58987143 -101 122 C-101.33 122 -101.66 122 -102 122 C-102.28345768 119.03246268 -102.41141213 117.53198769 -100.55053711 115.12573242 C-99.8828833 114.54154541 -99.21522949 113.9573584 -98.52734375 113.35546875 C-97.79555908 112.68660645 -97.06377441 112.01774414 -96.30981445 111.32861328 C-95.52695068 110.6220459 -94.74408691 109.91547852 -93.9375 109.1875 C-86.36481912 102.02140079 -82.28771724 95.92115103 -78.87744141 86.13378906 C-76.99670811 81.56016385 -74.43785567 77.29505934 -72 73 C-72.87325928 73.87849609 -73.74651855 74.75699219 -74.64624023 75.66210938 C-77.87338268 78.9072925 -81.10378497 82.14921355 -84.33520508 85.39013672 C-85.73584335 86.79581735 -87.13558465 88.20239231 -88.53442383 89.60986328 C-90.54015164 91.62766096 -92.5490372 93.64226631 -94.55859375 95.65625 C-95.18777206 96.2905896 -95.81695038 96.9249292 -96.4651947 97.57849121 C-97.95793603 99.07142676 -99.47632715 100.53864643 -101 102 C-101.33 102 -101.66 102 -102 102 C-102.31496653 98.91699593 -102.31284758 97.4439976 -100.49908161 94.86987591 C-99.43585572 93.80382232 -99.43585572 93.80382232 -98.35115051 92.7162323 C-97.54220337 91.89318604 -96.73325623 91.07013977 -95.89979553 90.22215271 C-95.00062912 89.33310745 -94.10146271 88.44406219 -93.17504883 87.52807617 C-92.22646715 86.57271867 -91.27895231 85.6163009 -90.33242798 84.65890503 C-87.75910023 82.06277323 -85.17019391 79.48271863 -82.57753587 76.90590835 C-79.86709321 74.20811888 -77.16886494 71.49815791 -74.46867371 68.79011536 C-69.93200542 64.24434884 -65.38489253 59.70923017 -60.83178711 55.17993164 C-55.5668759 49.94223195 -50.32022011 44.68676213 -45.08268529 39.4216978 C-40.5865235 34.90285098 -36.08069681 30.39381522 -31.56663913 25.89284497 C-28.87009124 23.2040949 -26.17704178 20.51207456 -23.4926548 17.81117821 C-20.96844389 15.27253071 -18.43232826 12.746414 -15.88647842 10.22947311 C-14.5086133 8.86138042 -13.14304201 7.48094097 -11.77784729 6.10020447 C-10.54327789 4.88678375 -10.54327789 4.88678375 -9.2837677 3.64884949 C-8.57306531 2.94003222 -7.86236292 2.23121496 -7.13012409 1.50091839 C-4.5560024 -0.31284758 -3.08300407 -0.31496653 0 0 Z " fill="#297FB7" transform="translate(102,0)"/>
<path d="M0 0 C1.64508041 -0.01270432 1.64508041 -0.01270432 3.32339478 -0.02566528 C6.94390509 -0.04903647 10.5639903 -0.05005718 14.18457031 -0.04882812 C16.7079485 -0.05593082 19.23132507 -0.06362998 21.75469971 -0.07189941 C27.04387529 -0.08534545 32.33289464 -0.08709461 37.62207031 -0.08105469 C43.71500721 -0.07442413 49.80733715 -0.09724335 55.90015101 -0.13436842 C61.78308515 -0.16889983 67.6657826 -0.17539127 73.54880524 -0.17127991 C76.04137222 -0.17296882 78.53394736 -0.18258913 81.02645111 -0.20042419 C84.52072079 -0.22267156 88.01354583 -0.21287996 91.5078125 -0.1953125 C92.52841766 -0.20857574 93.54902283 -0.22183899 94.60055542 -0.23550415 C104.39474861 -0.12165743 111.64792724 3.50568149 118.54003906 10.38085938 C122.76536313 16.23130808 123.43425585 21.35361035 123.20019531 28.35742188 C123.18666016 29.13666016 123.173125 29.91589844 123.15917969 30.71875 C123.12419755 32.61944592 123.0704049 34.51978022 123.01269531 36.41992188 C124.24916306 36.40881882 125.4856308 36.39771576 126.75956726 36.38627625 C138.45477114 36.28458806 150.14988443 36.20980704 161.84543133 36.16086102 C167.85718507 36.1348507 173.86857978 36.09960943 179.88012695 36.04272461 C185.68975632 35.98809917 191.49904195 35.95843703 197.30890846 35.94553566 C199.51713274 35.93635042 201.72533981 35.91841467 203.93341637 35.89127159 C220.91929774 35.69091648 234.04835725 36.98426259 246.87597656 49.19335938 C254.0164703 56.68552625 258.09794158 66.01014121 258.16659546 76.37548828 C258.17519592 77.34803055 258.18379639 78.32057281 258.19265747 79.32258606 C258.19904739 80.90604073 258.19904739 80.90604073 258.20556641 82.52148438 C258.2137439 83.64250046 258.22192139 84.76351654 258.23034668 85.91850281 C258.25515048 89.62730381 258.27170646 93.33606658 258.28613281 97.04492188 C258.29145649 98.31492035 258.29678017 99.58491882 258.30226517 100.8934021 C258.32348545 106.23617513 258.34261343 111.57893491 258.35388756 116.92173767 C258.37008568 124.54472874 258.4031739 132.1672069 258.46028841 139.79000473 C258.50389651 145.81866279 258.51965664 151.84709023 258.52602005 157.87591553 C258.53271077 160.42742559 258.54787547 162.97892885 258.57191086 165.53033447 C258.73282751 183.64967214 258.15265541 197.47888599 245.27441406 211.28320312 C237.11593314 219.17142381 226.53065111 222.57188725 215.40513611 222.56036377 C214.51533053 222.56333489 213.62552494 222.56630601 212.70875555 222.56936717 C209.71492592 222.578067 206.72113621 222.57956352 203.72729492 222.58105469 C201.58546869 222.58568207 199.44364329 222.59070662 197.30181885 222.59609985 C191.47299886 222.6092363 185.6441904 222.61567161 179.81535792 222.62011051 C176.17343347 222.62304012 172.53151218 222.62714479 168.88958931 222.63161469 C157.4943175 222.64529486 146.09905289 222.65495813 134.70377344 222.65881658 C121.55147028 222.66329432 108.3992712 222.68082692 95.24699968 222.70981717 C85.08125977 222.73144597 74.91554911 222.74152155 64.74978644 222.74285769 C58.67855269 222.74390515 52.60741671 222.74980009 46.5362072 222.76767731 C40.82102227 222.78417788 35.10600839 222.78630374 29.39080811 222.7775383 C27.29706425 222.77676891 25.20331113 222.78109766 23.10959053 222.79099655 C20.24257175 222.80375253 17.37615536 222.79781929 14.50914001 222.78741455 C13.68819711 222.79547096 12.86725421 222.80352736 12.02143425 222.8118279 C0.3107143 222.71300673 -10.07154961 218.10362425 -18.73730469 210.29492188 C-25.91912974 202.67166077 -30.22223945 191.70816536 -30.26145935 181.34306335 C-30.26669603 180.65416655 -30.27193271 179.96526974 -30.27732807 179.25549728 C-30.29226498 176.95957851 -30.29303182 174.66388384 -30.29370117 172.36791992 C-30.30132689 170.71663032 -30.3097551 169.06534426 -30.31892395 167.4140625 C-30.34083459 162.93667667 -30.34966317 158.45935911 -30.35475039 153.98192573 C-30.35839789 151.18205761 -30.36463999 148.38220728 -30.37175179 145.58234596 C-30.39623392 135.80724937 -30.4092956 126.03220576 -30.4128418 116.25708008 C-30.41647656 107.15703069 -30.44637086 98.05731866 -30.48824638 88.95737237 C-30.52297761 81.13465845 -30.53839072 73.31205621 -30.53908783 65.48926574 C-30.53987965 60.82143981 -30.54857453 56.15395777 -30.57708549 51.48621178 C-30.60331498 47.09393772 -30.60544436 42.70229149 -30.58942986 38.30997467 C-30.58761926 36.70279124 -30.59427087 35.09557129 -30.61024857 33.48846626 C-30.7055493 23.27585218 -29.8697741 15.97032063 -22.95996094 8.11523438 C-22.32960938 7.59703125 -21.69925781 7.07882813 -21.04980469 6.54492188 C-20.42203125 6.01125 -19.79425781 5.47757813 -19.14746094 4.92773438 C-12.69281243 0.42231969 -7.67213617 -0.02185665 0 0 Z " fill="#FDFDFD" transform="translate(141.9873046875,144.580078125)"/>
<path d="M0 0 C83.16 0 166.32 0 252 0 C252 96.41818182 252 96.41818182 245.8515625 103.4609375 C245.11679687 104.09257812 244.38203125 104.72421875 243.625 105.375 C242.89539063 106.02210938 242.16578125 106.66921875 241.4140625 107.3359375 C235.94948967 111.10277896 230.56454806 111.29176736 224.17007446 111.26742554 C222.85390579 111.27422221 222.85390579 111.27422221 221.51114786 111.28115618 C218.57720226 111.29379501 215.64344242 111.29218014 212.70947266 111.29052734 C210.6033657 111.29651287 208.49726094 111.30331847 206.39115906 111.31088257 C200.67420564 111.32854622 194.9573121 111.33323808 189.24033403 111.33451414 C185.66792077 111.33593596 182.09552273 111.34020613 178.52311325 111.34550858 C166.05836775 111.36400928 153.59366502 111.37217904 141.12890625 111.37060547 C129.51250128 111.36940371 117.89628201 111.39051288 106.27992404 111.4220928 C96.3035309 111.44824727 86.32719846 111.45897313 76.35077131 111.45769465 C70.39363856 111.45718482 64.43667088 111.46287985 58.4795723 111.48405075 C52.87674824 111.50341928 47.27424698 111.50356687 41.67141151 111.48901749 C39.61713883 111.48692666 37.56284602 111.49164652 35.50860786 111.5037384 C32.69999095 111.51919787 29.89248616 111.50987803 27.08389282 111.49447632 C26.27473439 111.50476344 25.46557595 111.51505057 24.63189757 111.52564943 C17.40133796 111.43827767 11.30032259 108.89984225 6.1875 103.6875 C5.37345703 102.88892578 5.37345703 102.88892578 4.54296875 102.07421875 C-15.7848836 74.74740964 0 34.05842154 0 0 Z " fill="#297FB8" transform="translate(130,238)"/>
<path d="M0 0 C0.9070015 -0.0112793 1.81400299 -0.02255859 2.74848938 -0.03417969 C3.73613281 -0.02608276 4.72377625 -0.01798584 5.74134827 -0.00964355 C7.31025566 -0.02015747 7.31025566 -0.02015747 8.91085815 -0.03088379 C12.37163265 -0.04850248 15.8315907 -0.03682584 19.29237366 -0.02331543 C21.69606687 -0.02600942 24.09975901 -0.02989106 26.50344849 -0.03491211 C31.54314033 -0.04081261 36.58254872 -0.03222684 41.62220764 -0.0135498 C48.08329074 0.00922734 54.54370879 -0.0038727 61.00476742 -0.02783966 C65.9693096 -0.04229292 70.93369411 -0.03769349 75.89824104 -0.02732849 C78.2804885 -0.02465929 80.66275024 -0.02793772 83.044981 -0.0372467 C86.37514537 -0.04740267 89.70423287 -0.03192254 93.03431702 -0.00964355 C94.51274582 -0.02178894 94.51274582 -0.02178894 96.02104187 -0.03417969 C100.33684655 0.01932449 102.80054086 0.11721158 106.56542969 2.37342834 C108.98538956 5.11065415 109.06641376 6.56992994 109.05409241 10.19152832 C109.07729553 11.83024902 109.07729553 11.83024902 109.10096741 13.5020752 C109.09323303 14.63838379 109.08549866 15.77469238 109.07752991 16.94543457 C109.07752991 19.19417018 109.09009177 21.44294886 109.11659241 23.69152832 C109.11095276 24.68724854 109.10531311 25.68296875 109.09950256 26.7088623 C109.51284608 29.98616754 110.51703643 31.85451148 112.45252991 34.50793457 C114.80173327 35.68253625 116.18994267 35.63510898 118.8085022 35.63923645 C120.18145195 35.64524872 120.18145195 35.64524872 121.58213806 35.65138245 C122.58938934 35.65085373 123.59664062 35.65032501 124.63441467 35.64978027 C126.22250694 35.65499191 126.22250694 35.65499191 127.84268188 35.66030884 C130.14860061 35.66767556 132.45452647 35.67301604 134.76045418 35.6765995 C138.41348162 35.6837541 142.06637388 35.69941478 145.71936035 35.71794128 C156.10834357 35.77044708 166.49725486 35.81836123 176.8863678 35.8338623 C183.23656553 35.84395943 189.58642648 35.87333318 195.93649101 35.91518211 C198.35448086 35.92747704 200.77251833 35.93261614 203.19053841 35.93038368 C206.58235021 35.92802359 209.97320166 35.95025426 213.36488342 35.97790527 C214.85450592 35.96800316 214.85450592 35.96800316 216.3742218 35.957901 C223.81566749 36.05712402 229.70175056 37.78067298 235.75721741 42.18371582 C240.09887715 46.70897809 243.45252991 50.95337431 243.45252991 57.50793457 C160.29252991 57.50793457 77.13252991 57.50793457 -8.54747009 57.50793457 C-8.54747009 0.01639491 -8.54747009 0.01639491 0 0 Z " fill="#297FB8" transform="translate(138.54747009277344,162.4920654296875)"/>
<path d="M0 0 C-4.01137457 4.80192917 -8.19405194 9.35347002 -12.61328125 13.78125 C-13.22713181 14.39842896 -13.84098236 15.01560791 -14.47343445 15.65148926 C-15.76377842 16.94686032 -17.05544786 18.24091231 -18.34838867 19.53369141 C-20.30222591 21.48971442 -22.24791472 23.45360288 -24.19335938 25.41796875 C-30.49962954 31.75228804 -36.77092874 37.71129657 -44 43 C-51.39229887 49.18475005 -58.59421873 55.91618925 -64.26855469 63.75170898 C-69.97498257 71.53110298 -76.8839303 78.15000263 -83.71777344 84.92358398 C-85.8958698 87.08319265 -88.06562666 89.25092953 -90.234375 91.41992188 C-91.61150425 92.79214345 -92.98909144 94.16390563 -94.3671875 95.53515625 C-95.01815399 96.18500992 -95.66912048 96.83486359 -96.33981323 97.50440979 C-100.88388466 102 -100.88388466 102 -102 102 C-102.31496653 98.91699593 -102.31284758 97.4439976 -100.49908161 94.86987591 C-99.43585572 93.80382232 -99.43585572 93.80382232 -98.35115051 92.7162323 C-97.54220337 91.89318604 -96.73325623 91.07013977 -95.89979553 90.22215271 C-95.00062912 89.33310745 -94.10146271 88.44406219 -93.17504883 87.52807617 C-92.22646715 86.57271867 -91.27895231 85.6163009 -90.33242798 84.65890503 C-87.75910023 82.06277323 -85.17019391 79.48271863 -82.57753587 76.90590835 C-79.86709321 74.20811888 -77.16886494 71.49815791 -74.46867371 68.79011536 C-69.93200542 64.24434884 -65.38489253 59.70923017 -60.83178711 55.17993164 C-55.5668759 49.94223195 -50.32022011 44.68676213 -45.08268529 39.4216978 C-40.5865235 34.90285098 -36.08069681 30.39381522 -31.56663913 25.89284497 C-28.87009124 23.2040949 -26.17704178 20.51207456 -23.4926548 17.81117821 C-20.96844389 15.27253071 -18.43232826 12.746414 -15.88647842 10.22947311 C-14.5086133 8.86138042 -13.14304201 7.48094097 -11.77784729 6.10020447 C-10.54327789 4.88678375 -10.54327789 4.88678375 -9.2837677 3.64884949 C-8.57306531 2.94003222 -7.86236292 2.23121496 -7.13012409 1.50091839 C-4.5560024 -0.31284758 -3.08300407 -0.31496653 0 0 Z " fill="#434440" transform="translate(102,0)"/>
<path d="M0 0 C0.23750901 2.8365611 0.35276467 4.46981377 -1.25104046 6.88024616 C-2.1372821 7.7693155 -2.1372821 7.7693155 -3.04142761 8.67634583 C-3.71574829 9.36476563 -4.39006897 10.05318542 -5.08482361 10.76246643 C-5.8343782 11.50189987 -6.5839328 12.24133331 -7.35620117 13.00317383 C-8.5292128 14.18932785 -8.5292128 14.18932785 -9.72592163 15.39944458 C-12.31914692 18.01470964 -14.93027776 20.61122297 -17.54296875 23.20703125 C-19.34776407 25.01519332 -21.15181651 26.82409717 -22.95515442 28.63371277 C-26.73944886 32.42538488 -30.53241305 36.20808285 -34.33227539 39.98413086 C-38.72469775 44.34934205 -43.0988164 48.73227494 -47.46386164 53.12484914 C-51.6641916 57.35060532 -55.87849132 61.56221094 -60.09887123 65.76795006 C-61.89314462 67.55888257 -63.68369613 69.35355177 -65.47047997 71.15195656 C-67.96738013 73.66152233 -70.47969049 76.15455261 -72.99682617 78.64379883 C-73.73625961 79.39335342 -74.47569305 80.14290802 -75.23753357 80.91517639 C-75.92595337 81.58949707 -76.61437317 82.26381775 -77.32365417 82.95857239 C-77.91636706 83.54940015 -78.50907995 84.14022791 -79.11975384 84.74895954 C-81.53018623 86.35276467 -83.1634389 86.23750901 -86 86 C-81.5914258 80.72576322 -76.9488599 75.80569989 -72.08276367 70.95336914 C-71.31296173 70.18181488 -70.54315979 69.41026062 -69.75003052 68.61532593 C-67.22517279 66.08609479 -64.69670849 63.56050568 -62.16796875 61.03515625 C-60.40759401 59.27410759 -58.64736771 57.51291052 -56.88728333 55.75157166 C-53.20976313 52.07258097 -49.53044938 48.39539602 -45.84985352 44.71948242 C-42.06370451 40.93791436 -38.2797385 37.15418895 -34.49829102 33.36791992 C-29.92904727 28.79290015 -25.3573928 24.22030545 -20.78362465 19.64980888 C-19.03927409 17.90612739 -17.29567151 16.1616973 -15.55281639 14.41652107 C-13.12770192 11.98888386 -10.69943437 9.5644466 -8.27026367 7.14086914 C-7.54457687 6.41315811 -6.81889008 5.68544708 -6.07121277 4.9356842 C-5.41379089 4.28108215 -4.75636902 3.6264801 -4.07902527 2.95204163 C-3.50516681 2.37856019 -2.93130835 1.80507875 -2.34006023 1.21421909 C-1 0 -1 0 0 0 Z " fill="#444440" transform="translate(512,426)"/>
<path d="M0 0 C-4.30104237 5.13792366 -8.80644002 9.94999363 -13.55004883 14.67944336 C-14.28083649 15.41198334 -15.01162415 16.14452332 -15.76455688 16.89926147 C-18.15955389 19.29862905 -20.55815309 21.69435702 -22.95703125 24.08984375 C-24.62772498 25.76121146 -26.29827026 27.43272755 -27.96867371 29.10438538 C-31.45788042 32.59506218 -34.94887934 36.08393394 -38.44116211 39.5715332 C-42.9283652 44.05301282 -47.41102867 48.53900231 -51.89238453 53.02632809 C-55.3348032 56.47234836 -58.77958523 59.91599814 -62.22510338 63.35891914 C-63.88013914 65.01328589 -65.53442707 66.66840109 -67.1879673 68.32426262 C-69.48855014 70.62736824 -71.79228483 72.9272726 -74.09692383 75.22631836 C-74.78520767 75.91662643 -75.47349152 76.60693451 -76.18263245 77.31816101 C-76.80639771 77.93910645 -77.43016296 78.56005188 -78.0728302 79.19981384 C-78.61719129 79.7437979 -79.16155237 80.28778196 -79.72240925 80.84825039 C-81 82 -81 82 -82 82 C-82.35329366 77.54032026 -82.35329366 77.54032026 -80.81142902 75.18222332 C-80.25009864 74.61900781 -79.68876825 74.05579229 -79.11042786 73.47550964 C-78.46976379 72.82074646 -77.82909973 72.16598328 -77.16902161 71.49137878 C-76.45686996 70.7893483 -75.74471832 70.08731781 -75.01098633 69.36401367 C-74.26799286 68.61225861 -73.52499939 67.86050354 -72.75949097 67.08596802 C-70.29611837 64.6005604 -67.81486829 62.13392127 -65.33203125 59.66796875 C-63.61691694 57.94948756 -61.90254554 56.23026462 -60.18888855 54.5103302 C-56.59291002 50.90697466 -52.98802838 47.3128322 -49.37670898 43.72485352 C-44.74356578 39.12019691 -40.13322867 34.4934605 -35.5293169 29.85959911 C-31.99278156 26.30501413 -28.44444561 22.76240252 -24.89240074 19.22332191 C-23.18744235 17.52170391 -21.48620411 15.81635018 -19.78873634 14.10725975 C-17.41635932 11.7222141 -15.02859624 9.35373806 -12.63598633 6.98901367 C-11.93395584 6.27686203 -11.23192535 5.56471039 -10.50862122 4.83097839 C-9.85385803 4.19031433 -9.19909485 3.54965027 -8.52449036 2.88957214 C-7.96127484 2.32824176 -7.39805933 1.76691137 -6.81777668 1.18857098 C-4.44815586 -0.36082866 -2.77370694 -0.21973172 0 0 Z " fill="#444440" transform="translate(82,0)"/>
<path d="M0 0 C0.34501648 2.11454773 0.34501648 2.11454773 0 5 C-1.77256704 7.26571383 -3.4827624 9.16639355 -5.52026367 11.16723633 C-6.10720001 11.76293427 -6.69413635 12.3586322 -7.29885864 12.97238159 C-9.24283352 14.9383663 -11.20453604 16.88549283 -13.16796875 18.83203125 C-14.52435896 20.19178909 -15.88000616 21.55228846 -17.23493958 22.91349792 C-20.07767993 25.76361184 -22.9292731 28.60448072 -25.78735352 31.43920898 C-29.45198359 35.07535221 -33.09371014 38.73347997 -36.72910595 42.39882374 C-39.52447361 45.2122506 -42.33163086 48.01366965 -45.14251137 50.81159019 C-46.49020945 52.15595051 -47.83419666 53.50404145 -49.17439842 54.85587502 C-51.04869442 56.74285583 -52.93824854 58.61308595 -54.83276367 60.47973633 C-55.38518234 61.04227615 -55.93760101 61.60481598 -56.50675964 62.18440247 C-58.96552194 64.57651616 -60.41822786 65.93043691 -63.88545227 66.34501648 C-64.58325302 66.23116104 -65.28105377 66.1173056 -66 66 C-62.15095173 61.40054977 -58.16695596 57.02129157 -53.91870117 52.78930664 C-53.34397064 52.21282379 -52.76924011 51.63634094 -52.17709351 51.04238892 C-50.301537 49.16247703 -48.42240185 47.2861919 -46.54296875 45.41015625 C-45.23099913 44.09751233 -43.91917793 42.78472006 -42.60749817 41.4717865 C-39.87154491 38.73436532 -37.13380672 35.99874549 -34.39477539 33.2644043 C-30.87611382 29.75147345 -27.36200613 26.23402662 -23.84919262 22.71524906 C-21.14794372 20.01039888 -18.44433289 17.30791972 -15.73998451 14.60616875 C-14.44220801 13.30906097 -13.14517845 12.01120543 -11.84889793 10.71260262 C-10.04644104 8.90762267 -8.24083883 7.10585108 -6.43432617 5.30493164 C-5.89565414 4.76423538 -5.35698212 4.22353912 -4.80198669 3.66645813 C-1.11426933 0 -1.11426933 0 0 0 Z " fill="#444440" transform="translate(512,446)"/>
<path d="M0 0 C0.70537399 0.1062822 1.41074799 0.21256439 2.13749695 0.32206726 C-3.60093802 7.33514743 -10.03866576 13.64348946 -16.4445343 20.03691101 C-17.66682288 21.259874 -18.88896304 22.48298533 -20.11096191 23.70623779 C-22.65860197 26.25534502 -25.20802447 28.80265218 -27.75874329 31.34867859 C-31.03526994 34.61947204 -34.30723783 37.89478357 -37.57791615 41.17142391 C-40.09387265 43.69098159 -42.61219058 46.20816806 -45.13124657 48.72462654 C-46.33970824 49.93241959 -47.54742328 51.14096016 -48.75438881 52.35024834 C-50.43231443 54.0306971 -52.11338313 55.70793508 -53.79536438 57.38432312 C-54.29663345 57.88761642 -54.79790253 58.39090973 -55.31436157 58.90945435 C-58.74823309 62.32206726 -58.74823309 62.32206726 -59.86250305 62.32206726 C-60.18457031 60.18457031 -60.18457031 60.18457031 -59.86250305 57.32206726 C-58.20788842 55.17430728 -56.6287784 53.40437759 -54.70942688 51.52201843 C-54.16150482 50.96533478 -53.61358276 50.40865112 -53.04905701 49.83509827 C-51.2349269 47.99896681 -49.40312003 46.1817241 -47.5695343 44.36503601 C-46.30282513 43.09495896 -45.036859 41.82414044 -43.77160645 40.5526123 C-41.11717413 37.89080759 -38.45390603 35.23825873 -35.78413391 32.59184265 C-32.36162914 29.19782484 -28.96206092 25.78185475 -25.56879139 22.35863781 C-22.95871543 19.7304994 -20.3368536 17.11438047 -17.71126366 14.50174904 C-16.45288076 13.24670302 -15.19820559 11.98792811 -13.94732094 10.72540855 C-12.19754111 8.96293838 -10.43254626 7.21728002 -8.66255188 5.47514343 C-8.14753616 4.95000656 -7.63252045 4.42486969 -7.10189819 3.88381958 C-4.71829901 1.56930165 -3.35684137 0.37768648 0 0 Z " fill="#444440" transform="translate(59.86250305175781,-0.3220672607421875)"/>
<path d="M0 0 C0.99 0.99 1.98 1.98 3 3 C-2.63575312 8.75160268 -8.2848863 14.4895791 -13.95160198 20.21066284 C-16.58247445 22.86762933 -19.20849488 25.52904469 -21.82397461 28.20117188 C-24.34824017 30.77976352 -26.88452555 33.34594756 -29.42960548 35.9039917 C-30.39843571 36.88206069 -31.36285402 37.86452036 -32.32272911 38.85137939 C-33.6678357 40.23277544 -35.03023082 41.59727316 -36.39331055 42.9609375 C-37.16386276 43.74259277 -37.93441498 44.52424805 -38.72831726 45.32958984 C-41.39532507 47.29068981 -42.76409003 47.36928003 -46 47 C-41.18562562 41.20164104 -36.00751568 35.87718215 -30.6640625 30.56640625 C-29.78471039 29.68846909 -28.90535828 28.81053192 -27.99935913 27.9059906 C-25.21025942 25.12245588 -22.41768982 22.34243231 -19.625 19.5625 C-17.7247458 17.66783335 -15.82525347 15.7724037 -13.92578125 13.87695312 C-9.28649396 9.24864839 -4.64435833 4.62321579 0 0 Z " fill="#444440" transform="translate(52,465)"/>
<path d="M0 0 C0.36928003 3.23590997 0.29068981 4.60467493 -1.67041016 7.27168274 C-2.84289307 8.42751106 -2.84289307 8.42751106 -4.0390625 9.60668945 C-5.36043213 10.9274926 -5.36043213 10.9274926 -6.70849609 12.27497864 C-7.68040013 13.22135063 -8.65257452 14.16744506 -9.625 15.11328125 C-10.6125775 16.09153017 -11.59905449 17.07089126 -12.58447266 18.05131531 C-15.17766839 20.62544486 -17.78552709 23.18420572 -20.39672852 25.74005127 C-23.05996535 28.35208761 -25.70905679 30.97838367 -28.359375 33.60351562 C-33.55917766 38.74973739 -38.77455344 43.8798051 -44 49 C-44.99 48.01 -45.98 47.02 -47 46 C-41.02254233 39.99942043 -35.04242454 34.00151024 -29.05884647 28.0070343 C-26.28082361 25.22378227 -23.5037429 22.43960331 -20.72875977 19.65332031 C-18.05309648 16.96682933 -15.3750314 14.28275482 -12.69524956 11.60037231 C-11.67086446 10.57413275 -10.64736306 9.54701034 -9.62474251 8.51901245 C-8.19753135 7.08459249 -6.76694306 5.65353503 -5.33618164 4.22265625 C-4.52121719 3.40547119 -3.70625275 2.58828613 -2.86659241 1.74633789 C-1 0 -1 0 0 0 Z " fill="#444440" transform="translate(512,6)"/>
<path d="M0 0 C0.32083837 3.10610068 0.30661223 4.56555459 -1.52287292 7.15779114 C-2.2361525 7.87504868 -2.94943207 8.59230621 -3.68432617 9.33129883 C-4.48903854 10.151772 -5.29375092 10.97224518 -6.12284851 11.81758118 C-7.00398819 12.6885997 -7.88512787 13.55961823 -8.79296875 14.45703125 C-9.69114822 15.35999435 -10.5893277 16.26295746 -11.51472473 17.19328308 C-13.41811274 19.1000754 -15.32576542 21.00100167 -17.24243164 22.89428711 C-19.69645783 25.31982543 -22.1273497 27.76712305 -24.55213451 30.2218523 C-26.87028047 32.56242654 -29.20741314 34.88384872 -31.54296875 37.20703125 C-32.41398727 38.08817093 -33.2850058 38.96931061 -34.18241882 39.87715149 C-35.41312859 41.08422005 -35.41312859 41.08422005 -36.66870117 42.31567383 C-37.38595871 43.0289534 -38.10321625 43.74223297 -38.84220886 44.47712708 C-41.43444541 46.30661223 -42.89389932 46.32083837 -46 46 C-41.25272015 40.29306727 -36.17180505 35.02600679 -30.91796875 29.78515625 C-30.06318436 28.92941513 -29.20839996 28.07367401 -28.32771301 27.19200134 C-26.53293621 25.39654746 -24.73690964 23.60234209 -22.93969727 21.80932617 C-20.17543024 19.0504538 -17.41658841 16.28623611 -14.65820312 13.52148438 C-12.91177924 11.77572058 -11.16504556 10.03026663 -9.41796875 8.28515625 C-8.58887497 7.45403824 -7.75978119 6.62292023 -6.90556335 5.76661682 C-6.14419571 5.00840134 -5.38282806 4.25018585 -4.59838867 3.46899414 C-3.9258757 2.79727676 -3.25336273 2.12555939 -2.56047058 1.43348694 C-1 0 -1 0 0 0 Z " fill="#444440" transform="translate(512,466)"/>
<path d="M0 0 C-4.68820934 5.63568661 -9.69985408 10.83103966 -14.8984375 15.99609375 C-15.73339752 16.82963882 -16.56835754 17.6631839 -17.42861938 18.52198792 C-20.07505848 21.16286524 -22.72496759 23.80022896 -25.375 26.4375 C-27.17861643 28.23609649 -28.98200425 30.03492227 -30.78515625 31.83398438 C-35.18746261 36.22531248 -39.59261714 40.61376729 -44 45 C-44.99 44.67 -45.98 44.34 -47 44 C-45.54708179 40.67510017 -43.71941926 38.45211334 -41.18041992 35.87402344 C-40.00360909 34.67323151 -40.00360909 34.67323151 -38.80302429 33.44818115 C-37.95408096 32.59387512 -37.10513763 31.73956909 -36.23046875 30.859375 C-34.92073845 29.53610199 -34.92073845 29.53610199 -33.58454895 28.18609619 C-31.73709033 26.32413513 -29.88681107 24.46496911 -28.03393555 22.60839844 C-26.13344975 20.7035902 -24.24161548 18.79080195 -22.35717773 16.87011719 C-19.63972959 14.10403727 -16.90618556 11.35487911 -14.16796875 8.609375 C-12.9036628 7.31577057 -12.9036628 7.31577057 -11.61381531 5.99603271 C-10.81981827 5.2081134 -10.02582123 4.42019409 -9.20776367 3.60839844 C-8.51430344 2.90986755 -7.8208432 2.21133667 -7.10636902 1.49163818 C-4.54707242 -0.32074346 -3.06987912 -0.30949022 0 0 Z " fill="#434440" transform="translate(502,0)"/>
<path d="M0 0 C0.99 0.99 1.98 1.98 3 3 C-2.71668973 8.73981215 -8.43603977 14.47695433 -14.15885067 20.21066284 C-16.81580545 22.87284668 -19.47181778 25.53595705 -22.12573242 28.20117188 C-24.68468615 30.7709537 -27.2460417 33.33831836 -29.80911446 35.9039917 C-30.78884225 36.88557389 -31.76768637 37.86803888 -32.74564934 38.85137939 C-34.11059402 40.22353341 -35.47891669 41.59232473 -36.84741211 42.9609375 C-38.0165641 44.13342041 -38.0165641 44.13342041 -39.20933533 45.32958984 C-41 47 -41 47 -42 47 C-42.3429439 43.83543475 -42.30659177 42.42220624 -40.40551758 39.804245 C-39.65939209 39.06922256 -38.9132666 38.33420013 -38.14453125 37.5769043 C-37.30365967 36.73641037 -36.46278809 35.89591644 -35.59643555 35.029953 C-34.67773682 34.1370607 -33.75903809 33.2441684 -32.8125 32.32421875 C-31.88026611 31.3990596 -30.94803223 30.47390045 -29.98754883 29.52070618 C-27.51271452 27.06493428 -25.0232343 24.62454838 -22.53039551 22.18707275 C-19.98780305 19.69568909 -17.45936059 17.19003547 -14.9296875 14.68554688 C-9.96687639 9.77630978 -4.98844563 4.88318301 0 0 Z " fill="#444440" transform="translate(42,455)"/>
<path d="M0 0 C-4.49341567 5.38177723 -9.2440943 10.39064083 -14.20703125 15.33984375 C-14.97303146 16.10680069 -15.73903168 16.87375763 -16.52824402 17.66395569 C-18.13470736 19.27109547 -19.74241795 20.87698941 -21.35131836 22.48168945 C-23.82587623 24.95084704 -26.29499643 27.42535325 -28.76367188 29.90039062 C-30.32780406 31.4638628 -31.892246 33.02702518 -33.45703125 34.58984375 C-34.19862991 35.33346664 -34.94022858 36.07708954 -35.70429993 36.84324646 C-36.38558456 37.52137894 -37.0668692 38.19951141 -37.76879883 38.89819336 C-38.67097893 39.79918007 -38.67097893 39.79918007 -39.59138489 40.71836853 C-41 42 -41 42 -42 42 C-42.27229665 39.04189278 -42.3327752 37.48688341 -40.62898254 34.99406433 C-39.98676254 34.34786636 -39.34454254 33.7016684 -38.68286133 33.03588867 C-37.95823196 32.2954985 -37.2336026 31.55510834 -36.48701477 30.7922821 C-35.69337021 30.0087587 -34.89972565 29.22523529 -34.08203125 28.41796875 C-33.27263596 27.60378983 -32.46324066 26.7896109 -31.62931824 25.95075989 C-29.91454334 24.23258223 -28.19343683 22.52070394 -26.46655273 20.81469727 C-23.82260101 18.1974988 -21.20634083 15.55474282 -18.59179688 12.90820312 C-16.92347584 11.24318611 -15.25360445 9.57972078 -13.58203125 7.91796875 C-12.79850784 7.12432419 -12.01498444 6.33067963 -11.2077179 5.51298523 C-10.46732773 4.78835587 -9.72693756 4.0637265 -8.96411133 3.31713867 C-8.31791336 2.67491867 -7.67171539 2.03269867 -7.00593567 1.37101746 C-4.51311659 -0.3327752 -2.95810722 -0.27229665 0 0 Z " fill="#444440" transform="translate(42,0)"/>
<path d="M0 0 C0.99 0.99 1.98 1.98 3 3 C-1.8753624 8.0020213 -6.77013224 12.98442617 -11.67895508 17.95361328 C-13.34691546 19.64673511 -15.01036304 21.34431495 -16.66918945 23.04638672 C-19.05291216 25.49068235 -21.45234739 27.91854271 -23.85546875 30.34375 C-24.96513252 31.49212341 -24.96513252 31.49212341 -26.09721375 32.66369629 C-26.79756241 33.36442261 -27.49791107 34.06514893 -28.21948242 34.78710938 C-29.1354847 35.71976624 -29.1354847 35.71976624 -30.06999207 36.67126465 C-32.51374784 38.3536954 -34.09494298 38.25769641 -37 38 C-32.75789864 32.93288701 -28.32282911 28.18776629 -23.6328125 23.53515625 C-22.95322479 22.85698349 -22.27363708 22.17881073 -21.57345581 21.48008728 C-19.42632998 19.33850859 -17.27573373 17.20045471 -15.125 15.0625 C-13.65862227 13.60114411 -12.1924742 12.13955774 -10.7265625 10.67773438 C-7.15369 7.11582065 -3.57770316 3.55706135 0 0 Z " fill="#444440" transform="translate(63,474)"/>
<path d="M0 0 C0.25769641 2.90505702 0.3536954 4.48625216 -1.32873535 6.93000793 C-1.95050659 7.54067612 -2.57227783 8.1513443 -3.21289062 8.78051758 C-3.91361694 9.48086624 -4.61434326 10.1812149 -5.33630371 10.90278625 C-6.48467712 12.01245003 -6.48467712 12.01245003 -7.65625 13.14453125 C-8.43311157 13.91431808 -9.20997314 14.68410492 -10.01037598 15.47721863 C-12.49543817 17.93428254 -14.99731453 20.37340146 -17.5 22.8125 C-19.18733423 24.47475879 -20.87354685 26.13815694 -22.55859375 27.80273438 C-26.69280304 31.88180184 -30.8409541 35.94626756 -35 40 C-35.99 39.01 -36.98 38.02 -38 37 C-32.75241931 31.72715944 -27.50099694 26.45816833 -22.24682617 21.19189453 C-20.45816783 19.39819313 -18.67040607 17.60359722 -16.88354492 15.80810547 C-14.32182672 13.23432043 -11.75694972 10.6637213 -9.19140625 8.09375 C-7.98515343 6.87975525 -7.98515343 6.87975525 -6.75453186 5.64123535 C-6.01383957 4.90046753 -5.27314728 4.15969971 -4.51000977 3.39648438 C-3.52738914 2.41053284 -3.52738914 2.41053284 -2.5249176 1.40466309 C-1 0 -1 0 0 0 Z " fill="#444440" transform="translate(512,26)"/>
<path d="M0 0 C0.67651611 0.13696289 1.35303223 0.27392578 2.05004883 0.41503906 C-2.06324988 5.31977807 -6.33537578 9.93699187 -10.87963867 14.44238281 C-11.51483429 15.07616348 -12.15002991 15.70994415 -12.80447388 16.3629303 C-14.80893833 18.36185313 -16.81687331 20.3572469 -18.82495117 22.35253906 C-20.19497506 23.7175404 -21.56476891 25.08277267 -22.93432617 26.44824219 C-26.27021661 29.77318117 -29.60922153 33.09496259 -32.94995117 36.41503906 C-33.93995117 36.08503906 -34.92995117 35.75503906 -35.94995117 35.41503906 C-34.62900303 32.50025013 -33.19318816 30.39667989 -30.95654297 28.11523438 C-30.35218918 27.49489319 -29.74783539 26.874552 -29.12516785 26.2354126 C-28.47308853 25.57797058 -27.82100922 24.92052856 -27.14916992 24.24316406 C-26.47578079 23.56074646 -25.80239166 22.87832886 -25.1085968 22.17523193 C-23.68483949 20.73698673 -22.25827058 19.30152012 -20.82910156 17.86865234 C-18.6435821 15.67120346 -16.47741097 13.45579896 -14.3112793 11.23925781 C-12.92506249 9.84358045 -11.53772948 8.44901065 -10.14916992 7.05566406 C-9.5031633 6.39012512 -8.85715668 5.72458618 -8.1915741 5.03887939 C-3.6161611 0.50877049 -3.6161611 0.50877049 0 0 Z " fill="#444440" transform="translate(479.949951171875,-0.4150390625)"/>
<path d="M0 0 C0.495 1.485 0.495 1.485 1 3 C-3.96274933 7.98801016 -8.92934088 12.97216989 -13.89868164 17.95361328 C-15.59033493 19.65030949 -17.28109156 21.34790016 -18.97094727 23.04638672 C-21.3936679 25.48117482 -23.81954712 27.91277569 -26.24609375 30.34375 C-27.38672523 31.49212341 -27.38672523 31.49212341 -28.55039978 32.66369629 C-29.25105057 33.36442261 -29.95170135 34.06514893 -30.67358398 34.78710938 C-31.60290993 35.71976624 -31.60290993 35.71976624 -32.55101013 36.67126465 C-34 38 -34 38 -35 38 C-35.2321993 35.18011562 -35.36064248 33.5395251 -33.76065063 31.1459198 C-33.18044159 30.5707814 -32.60023254 29.99564301 -32.00244141 29.40307617 C-31.34821198 28.74276901 -30.69398254 28.08246185 -30.01992798 27.40214539 C-29.30436737 26.7061171 -28.58880676 26.01008881 -27.8515625 25.29296875 C-26.7599733 24.20487663 -26.7599733 24.20487663 -25.64633179 23.09480286 C-24.10698055 21.5651907 -22.56161279 20.04161311 -21.01074219 18.52368164 C-18.6288938 16.19131292 -16.2663039 13.84072773 -13.90625 11.48632812 C-12.40994536 10.00410596 -10.91258496 8.52294867 -9.4140625 7.04296875 C-8.70255035 6.33681931 -7.99103821 5.63066986 -7.25796509 4.90312195 C-6.59743134 4.25857559 -5.93689758 3.61402924 -5.25634766 2.94995117 C-4.67454742 2.37879074 -4.09274719 1.80763031 -3.49331665 1.21916199 C-2 0 -2 0 0 0 Z " fill="#444440" transform="translate(35,444)"/>
<path d="M0 0 C0.66 0.33 1.32 0.66 2 1 C-2.59051384 5.71719982 -7.20045011 10.41475522 -11.82446289 15.09912109 C-13.39542253 16.69523816 -14.96186713 18.29581214 -16.52368164 19.90087891 C-18.76840207 22.20619039 -21.02882904 24.49502825 -23.29296875 26.78125 C-23.98899704 27.50308472 -24.68502533 28.22491943 -25.40214539 28.96862793 C-26.06245255 29.62931274 -26.7227597 30.28999756 -27.40307617 30.97070312 C-28.26578377 31.85006531 -28.26578377 31.85006531 -29.1459198 32.74719238 C-31.5397223 34.364692 -33.17121829 34.23539823 -36 34 C-31.16126704 28.15116117 -25.94111419 22.72243116 -20.58740234 17.34716797 C-19.12777814 15.87779669 -17.67919688 14.39807374 -16.23046875 12.91796875 C-11.20343289 7.83307944 -6.40325775 3.28185192 0 0 Z " fill="#444440" transform="translate(442,478)"/>
<path d="M0 0 C0.35922831 4.46297587 0.35922831 4.46297587 -1.21484375 6.81611633 C-1.78332031 7.37348984 -2.35179687 7.93086334 -2.9375 8.50512695 C-3.89849609 9.46555656 -3.89849609 9.46555656 -4.87890625 10.44538879 C-5.57886719 11.1195433 -6.27882813 11.79369781 -7 12.48828125 C-7.71027344 13.19147995 -8.42054688 13.89467865 -9.15234375 14.6191864 C-11.42343448 16.86229075 -13.71128892 19.08739089 -16 21.3125 C-17.54280299 22.83022597 -19.08448429 24.34909308 -20.625 25.86914062 C-24.40375106 29.59276588 -28.19641393 33.30175592 -32 37 C-32 29.00533036 -23.64631163 22.32007683 -18.32327271 16.99429321 C-17.19164747 15.87371241 -16.05757356 14.75559936 -14.92114258 13.63989258 C-13.16658733 11.91696429 -11.42337133 10.18314915 -9.68164062 8.44726562 C-8.57354557 7.34832383 -7.46484428 6.2499929 -6.35546875 5.15234375 C-5.83260788 4.63373276 -5.30974701 4.11512177 -4.77104187 3.58079529 C-1.11727761 0 -1.11727761 0 0 0 Z " fill="#444440" transform="translate(512,406)"/>
<path d="M0 0 C0.99 0.33 1.98 0.66 3 1 C1.37569521 5.03933395 -1.47818942 7.8182903 -4.48828125 10.859375 C-5.02849411 11.40861633 -5.56870697 11.95785767 -6.12528992 12.52374268 C-7.26658164 13.67950665 -8.41067523 14.83250968 -9.55737305 15.98291016 C-11.3083886 17.74586057 -13.03987916 19.52660116 -14.77148438 21.30859375 C-15.8842629 22.43083272 -16.9981586 23.55196526 -18.11328125 24.671875 C-18.6280452 25.20617126 -19.14280914 25.74046753 -19.673172 26.29095459 C-22.07398446 28.66221083 -23.45743944 29.93700071 -26.86791992 30.33300781 C-27.57150635 30.22311523 -28.27509277 30.11322266 -29 30 C-23.47349666 23.25919575 -17.30550441 17.1928871 -11.125 11.0625 C-10.04403726 9.98656273 -8.96330617 8.91039269 -7.8828125 7.83398438 C-5.25787359 5.21996708 -2.62981372 2.60911404 0 0 Z " fill="#444440" transform="translate(75,482)"/>
<path d="M0 0 C0.36914062 2.1003418 0.36914062 2.1003418 0 5 C-1.90326589 7.33914978 -3.74210661 9.32495196 -5.90625 11.39453125 C-6.80518982 12.28285896 -6.80518982 12.28285896 -7.72229004 13.18913269 C-9.63677093 15.07565279 -11.5679052 16.94403994 -13.5 18.8125 C-14.8019176 20.08933716 -16.10271333 21.36731929 -17.40234375 22.64648438 C-20.58870285 25.77775159 -23.79010847 28.892868 -27 32 C-27.66 31.67 -28.32 31.34 -29 31 C-28.13227283 26.34967605 -25.30705762 23.90947326 -22.03125 20.703125 C-21.43574341 20.10949158 -20.84023682 19.51585815 -20.22668457 18.90423584 C-18.96923431 17.65349912 -17.70819573 16.40636107 -16.44384766 15.16259766 C-14.50027875 13.25027427 -12.56766928 11.32739974 -10.63671875 9.40234375 C-9.41468519 8.18947645 -8.19204957 6.97721539 -6.96875 5.765625 C-6.3864563 5.18758118 -5.8041626 4.60953735 -5.20422363 4.01397705 C-1.11715932 0 -1.11715932 0 0 0 Z " fill="#444440" transform="translate(512,46)"/>
<path d="M0 0 C0.66 1.32 1.32 2.64 2 4 C-1.8237384 7.84837833 -5.65068971 11.69352094 -9.48071289 15.53564453 C-10.78434621 16.84431998 -12.08708243 18.15388968 -13.38891602 19.46435547 C-15.25564616 21.34315652 -17.12553368 23.21876304 -18.99609375 25.09375 C-19.58152451 25.68434204 -20.16695526 26.27493408 -20.77012634 26.88342285 C-22.16123243 28.27472334 -23.57800523 29.64028531 -25 31 C-25.33 31 -25.66 31 -26 31 C-26.35546875 28.88598633 -26.35546875 28.88598633 -26 26 C-24.1671212 23.73121253 -22.40614538 21.8228619 -20.3125 19.82421875 C-19.73540283 19.25419632 -19.15830566 18.68417389 -18.5637207 18.09687805 C-16.72055988 16.28167175 -14.86077312 14.48463026 -13 12.6875 C-11.74625948 11.45884077 -10.49364087 10.22903561 -9.2421875 8.99804688 C-6.17431092 5.98525376 -3.09140799 2.98863512 0 0 Z " fill="#434440" transform="translate(26,431)"/>
<path d="M0 0 C0.69762451 0.11730469 1.39524902 0.23460938 2.11401367 0.35546875 C-3.13057219 6.72137179 -8.90695955 12.49117487 -14.76098633 18.29296875 C-15.74559552 19.27255112 -16.72997233 20.25236712 -17.71411133 21.23242188 C-20.10246835 23.60907127 -22.49313845 25.98334231 -24.88598633 28.35546875 C-26.20598633 27.69546875 -27.52598633 27.03546875 -28.88598633 26.35546875 C-25.29080985 22.63666172 -21.67948564 18.93461109 -18.05224609 15.24707031 C-16.82078359 13.99046931 -15.59384662 12.72941657 -14.37158203 11.46386719 C-12.61337577 9.64498389 -10.83949082 7.84275591 -9.06176758 6.04296875 C-8.51885574 5.47425049 -7.97594391 4.90553223 -7.4165802 4.31958008 C-4.96086179 1.86207874 -3.513845 0.4328025 0 0 Z " fill="#444440" transform="translate(459.885986328125,-0.35546875)"/>
<path d="M0 0 C0.43146911 3.41017013 0.23221626 4.68650345 -1.84838867 7.49536133 C-2.6963501 8.3489624 -3.54431152 9.20256348 -4.41796875 10.08203125 C-5.34287109 11.01337891 -6.26777344 11.94472656 -7.22070312 12.90429688 C-7.70804932 13.38116943 -8.19539551 13.85804199 -8.69750977 14.34936523 C-10.18290533 15.80798815 -11.63974174 17.29135796 -13.09570312 18.77929688 C-14.02705078 19.70419922 -14.95839844 20.62910156 -15.91796875 21.58203125 C-16.77156982 22.42999268 -17.6251709 23.2779541 -18.50463867 24.15161133 C-21.31349655 26.23221626 -22.58982987 26.43146911 -26 26 C-21.04455862 20.02265091 -15.68810448 14.53812065 -10.1875 9.0625 C-9.31673828 8.18787109 -8.44597656 7.31324219 -7.54882812 6.41210938 C-6.72189453 5.58646484 -5.89496094 4.76082031 -5.04296875 3.91015625 C-4.29039795 3.15871338 -3.53782715 2.40727051 -2.76245117 1.63305664 C-1 0 -1 0 0 0 Z " fill="#444440" transform="translate(512,486)"/>
<path d="M0 0 C0.99 0.33 1.98 0.66 3 1 C0.64346638 6.4147532 -3.70972645 10.11817455 -7.8125 14.25 C-9.02389648 15.51070313 -9.02389648 15.51070313 -10.25976562 16.796875 C-11.04673828 17.5909375 -11.83371094 18.385 -12.64453125 19.203125 C-13.35971924 19.93176758 -14.07490723 20.66041016 -14.81176758 21.41113281 C-17.42571221 23.30910801 -18.84055107 23.33654623 -22 23 C-17.47008204 17.56266945 -12.65705784 12.53541069 -7.625 7.5625 C-6.88894531 6.83095703 -6.15289062 6.09941406 -5.39453125 5.34570312 C-3.59863926 3.56147277 -1.80044015 1.77963876 0 0 Z " fill="#444440" transform="translate(88,489)"/>
<path d="M0 0 C0.42074595 3.37911591 0.26699378 4.65045828 -1.8359375 7.40356445 C-2.67382812 8.215271 -3.51171875 9.02697754 -4.375 9.86328125 C-5.27734375 10.74951172 -6.1796875 11.63574219 -7.109375 12.54882812 C-8.06328125 13.46083984 -9.0171875 14.37285156 -10 15.3125 C-10.96467802 16.25208992 -11.92823385 17.19283347 -12.890625 18.13476562 C-15.24961133 20.43477729 -17.61945787 22.72234034 -20 25 C-20.66 24.67 -21.32 24.34 -22 24 C-21.46762976 19.93016963 -19.42080571 18.06035198 -16.5625 15.234375 C-15.66789062 14.34492187 -14.77328125 13.45546875 -13.8515625 12.5390625 C-12.91054688 11.61867188 -11.96953125 10.69828125 -11 9.75 C-10.04884787 8.8053227 -9.09831963 7.86001679 -8.1484375 6.9140625 C-1.15374453 0 -1.15374453 0 0 0 Z " fill="#444440" transform="translate(512,66)"/>
<path d="M0 0 C0.66 0.33 1.32 0.66 2 1 C1.45318643 4.97004726 -0.41851963 6.7800081 -3.21875 9.546875 C-4.06824219 10.39121094 -4.91773438 11.23554688 -5.79296875 12.10546875 C-7.13294922 13.41451172 -7.13294922 13.41451172 -8.5 14.75 C-9.83998047 16.08224609 -9.83998047 16.08224609 -11.20703125 17.44140625 C-17.84622216 24 -17.84622216 24 -19 24 C-19.38746167 20.70402669 -19.28893524 19.38296861 -17.25585938 16.68823242 C-16.45986328 15.91842041 -15.66386719 15.1486084 -14.84375 14.35546875 C-13.98652344 13.51435547 -13.12929687 12.67324219 -12.24609375 11.80664062 C-11.33988281 10.94232422 -10.43367187 10.07800781 -9.5 9.1875 C-8.59378906 8.30384766 -7.68757812 7.42019531 -6.75390625 6.50976562 C-4.51339451 4.32821472 -2.2620652 2.1591577 0 0 Z " fill="#434440" transform="translate(19,418)"/>
<path d="M0 0 C1.03833984 0.18755859 1.03833984 0.18755859 2.09765625 0.37890625 C-2.11783338 5.38077162 -6.45638671 10.19981905 -11.02734375 14.87890625 C-11.63449219 15.5234375 -12.24164063 16.16796875 -12.8671875 16.83203125 C-13.45886719 17.4353125 -14.05054688 18.03859375 -14.66015625 18.66015625 C-15.18754395 19.20736328 -15.71493164 19.75457031 -16.25830078 20.31835938 C-17.90234375 21.37890625 -17.90234375 21.37890625 -20.10498047 21.04882812 C-20.69811035 20.82775391 -21.29124023 20.60667969 -21.90234375 20.37890625 C-17.94385944 15.51562553 -13.69515433 10.94869615 -9.33984375 6.44140625 C-8.78594971 5.84948486 -8.23205566 5.25756348 -7.66137695 4.64770508 C-3.5617719 0.46499579 -3.5617719 0.46499579 0 0 Z " fill="#444440" transform="translate(439.90234375,-0.37890625)"/>
<path d="M0 0 C-4.37625212 5.23380697 -8.97545497 10.12876938 -13.8125 14.9375 C-14.49248047 15.62134766 -15.17246094 16.30519531 -15.87304688 17.00976562 C-16.51951172 17.65494141 -17.16597656 18.30011719 -17.83203125 18.96484375 C-18.41702393 19.5487085 -19.0020166 20.13257324 -19.60473633 20.73413086 C-21 22 -21 22 -22 22 C-22.30391087 18.92972953 -22.30970547 17.44498147 -20.51879883 14.87182617 C-19.49822388 13.84279175 -19.49822388 13.84279175 -18.45703125 12.79296875 C-17.71259766 12.04208984 -16.96816406 11.29121094 -16.20117188 10.51757812 C-15.41291016 9.74865234 -14.62464844 8.97972656 -13.8125 8.1875 C-13.04357422 7.39923828 -12.27464844 6.61097656 -11.48242188 5.79882812 C-10.73154297 5.05439453 -9.98066406 4.30996094 -9.20703125 3.54296875 C-8.5210083 2.86258545 -7.83498535 2.18220215 -7.12817383 1.48120117 C-4.55501853 -0.30970547 -3.07027047 -0.30391087 0 0 Z " fill="#444440" transform="translate(22,0)"/>
<path d="M0 0 C-12.88135593 15.45762712 -12.88135593 15.45762712 -20 18 C-20.66 17.67 -21.32 17.34 -22 17 C-19.29143377 14.14633998 -16.55502375 11.32100971 -13.8125 8.5 C-13.04357422 7.68917969 -12.27464844 6.87835937 -11.48242188 6.04296875 C-10.35610352 4.89248047 -10.35610352 4.89248047 -9.20703125 3.71875 C-8.5210083 3.00654297 -7.83498535 2.29433594 -7.12817383 1.56054688 C-4.55268605 -0.32800629 -3.12300418 -0.32446797 0 0 Z " fill="#434441" transform="translate(122,0)"/>
<path d="M0 0 C1.32 0.66 2.64 1.32 4 2 C1.62485658 4.52037796 -0.77821529 7.01227346 -3.1875 9.5 C-4.19780273 10.57314453 -4.19780273 10.57314453 -5.22851562 11.66796875 C-5.88916016 12.34472656 -6.54980469 13.02148438 -7.23046875 13.71875 C-8.13381958 14.66137695 -8.13381958 14.66137695 -9.05541992 15.62304688 C-11.5096363 17.36087241 -13.05753815 17.26648711 -16 17 C-11.01595832 10.96668638 -5.58084697 5.4815829 0 0 Z " fill="#444440" transform="translate(102,495)"/>
<path d="M0 0 C0.33 0.66 0.66 1.32 1 2 C-1.06794244 7.44610795 -4.52442847 10.91767988 -8.625 14.875 C-9.223125 15.46796875 -9.82125 16.0609375 -10.4375 16.671875 C-14.84540611 21 -14.84540611 21 -16 21 C-16.29483328 17.96644191 -16.34520864 16.47862122 -14.53125 13.96362305 C-13.8609375 13.31949463 -13.190625 12.67536621 -12.5 12.01171875 C-11.778125 11.30595703 -11.05625 10.60019531 -10.3125 9.87304688 C-9.549375 9.15181641 -8.78625 8.43058594 -8 7.6875 C-7.236875 6.94693359 -6.47375 6.20636719 -5.6875 5.44335938 C-3.80239968 3.61716844 -1.90664431 1.80364241 0 0 Z " fill="#434441" transform="translate(16,101)"/>
<path d="M0 0 C0.23223455 2.82895642 0.36552139 4.45969189 -1.25341797 6.8527832 C-1.82721191 7.41312256 -2.40100586 7.97346191 -2.9921875 8.55078125 C-3.61480469 9.16630859 -4.23742187 9.78183594 -4.87890625 10.41601562 C-5.53761719 11.04185547 -6.19632812 11.66769531 -6.875 12.3125 C-7.85146484 13.28026367 -7.85146484 13.28026367 -8.84765625 14.26757812 C-13.70527447 19 -13.70527447 19 -16 19 C-15.82518835 13.2858443 -11.8669927 10.38321841 -8 6.6875 C-7.34515625 6.04232422 -6.6903125 5.39714844 -6.015625 4.73242188 C-1.16802249 0 -1.16802249 0 0 0 Z " fill="#444440" transform="translate(512,86)"/>
<path d="M0 0 C-4.69766975 5.66129431 -9.74723372 10.85228904 -15 16 C-16.32 15.34 -17.64 14.68 -19 14 C-16.79157785 11.6462575 -14.55517558 9.32109081 -12.3125 7 C-11.68666016 6.33226562 -11.06082031 5.66453125 -10.41601562 4.9765625 C-9.80048828 4.34492187 -9.18496094 3.71328125 -8.55078125 3.0625 C-7.71027222 2.18271484 -7.71027222 2.18271484 -6.8527832 1.28515625 C-4.45940599 -0.37497521 -2.85001819 -0.23946139 0 0 Z " fill="#444440" transform="translate(422,0)"/>
<path d="M0 0 C-0.25068892 5.54649243 -3.71807078 8.21123619 -7.5 11.8125 C-8.41072266 12.7087207 -8.41072266 12.7087207 -9.33984375 13.62304688 C-13.83184821 18 -13.83184821 18 -15 18 C-15.3984375 15.92578125 -15.3984375 15.92578125 -15 13 C-13.14584507 10.45072773 -10.90981038 8.34939337 -8.625 6.1875 C-7.72007812 5.2912793 -7.72007812 5.2912793 -6.796875 4.37695312 C-2.29486607 0 -2.29486607 0 0 0 Z " fill="#444440" transform="translate(15,404)"/>
<path d="M0 0 C0.66 0.33 1.32 0.66 2 1 C-0.20842215 3.3537425 -2.44482442 5.67890919 -4.6875 8 C-5.31333984 8.66773438 -5.93917969 9.33546875 -6.58398438 10.0234375 C-7.19951172 10.65507812 -7.81503906 11.28671875 -8.44921875 11.9375 C-9.00955811 12.52402344 -9.56989746 13.11054688 -10.1472168 13.71484375 C-12.54059401 15.37497521 -14.14998181 15.23946139 -17 15 C-6.53271028 2.17757009 -6.53271028 2.17757009 0 0 Z " fill="#444440" transform="translate(403,497)"/>
<path d="M0 0 C0.40625 2.07421875 0.40625 2.07421875 0 5 C-1.90159228 7.5453605 -4.18087473 9.65007239 -6.5 11.8125 C-7.12003906 12.40998047 -7.74007813 13.00746094 -8.37890625 13.62304688 C-9.90825488 15.09357441 -11.45271466 16.5483573 -13 18 C-14 15 -14 15 -12.8828125 12.64453125 C-10.77552372 9.68470863 -8.46426405 7.23524524 -5.875 4.6875 C-4.98554688 3.80449219 -4.09609375 2.92148437 -3.1796875 2.01171875 C-1 0 -1 0 0 0 Z " fill="#444440" transform="translate(512,386)"/>
<path d="M0 0 C1.32 0.66 2.64 1.32 4 2 C2.45355352 3.68157287 0.88719279 5.34484845 -0.6875 7 C-1.99267578 8.3921875 -1.99267578 8.3921875 -3.32421875 9.8125 C-6 12 -6 12 -8.83203125 12.3125 C-9.90517578 12.1578125 -9.90517578 12.1578125 -11 12 C-7.49102731 7.81576108 -3.91939465 3.80411834 0 0 Z " fill="#444440" transform="translate(117,500)"/>
<path d="M0 0 C0.30859375 2.16796875 0.30859375 2.16796875 0 5 C-2.15234375 7.67578125 -2.15234375 7.67578125 -4.9375 10.3125 C-5.85402344 11.19550781 -6.77054687 12.07851562 -7.71484375 12.98828125 C-10 15 -10 15 -11 15 C-11.30859375 12.83203125 -11.30859375 12.83203125 -11 10 C-8.84765625 7.32421875 -8.84765625 7.32421875 -6.0625 4.6875 C-5.14597656 3.80449219 -4.22945313 2.92148438 -3.28515625 2.01171875 C-1 0 -1 0 0 0 Z " fill="#444440" transform="translate(512,106)"/>
<path d="M0 0 C1.08861328 0.13921875 1.08861328 0.13921875 2.19921875 0.28125 C-1.00838376 4.08760497 -4.20824234 7.82688567 -7.80078125 11.28125 C-9.12078125 10.62125 -10.44078125 9.96125 -11.80078125 9.28125 C-10.42113702 7.76634654 -9.02137808 6.26974387 -7.61328125 4.78125 C-6.83597656 3.9459375 -6.05867188 3.110625 -5.2578125 2.25 C-2.80078125 0.28125 -2.80078125 0.28125 0 0 Z " fill="#444440" transform="translate(399.80078125,-0.28125)"/>
<path d="M0 0 C0.66 1.32 1.32 2.64 2 4 C0.35718838 5.66964521 -1.28932761 7.3356464 -2.9375 9 C-4.31228516 10.3921875 -4.31228516 10.3921875 -5.71484375 11.8125 C-8 14 -8 14 -9 14 C-9.28125 11.80078125 -9.28125 11.80078125 -9 9 C-7.03125 6.54296875 -7.03125 6.54296875 -4.5 4.1875 C-3.6646875 3.39730469 -2.829375 2.60710937 -1.96875 1.79296875 C-1.3190625 1.20128906 -0.669375 0.60960937 0 0 Z " fill="#444440" transform="translate(9,388)"/>
<path d="M0 0 C0.78375 0.04125 1.5675 0.0825 2.375 0.125 C-1.46647426 5.38767902 -4.13652543 7.95707458 -10.625 9.125 C-9.66770084 7.99911986 -8.70912105 6.8743285 -7.75 5.75 C-7.21632812 5.12351562 -6.68265625 4.49703125 -6.1328125 3.8515625 C-2.88938849 0.13758993 -2.88938849 0.13758993 0 0 Z " fill="#434442" transform="translate(139.625,-0.125)"/>
<path d="M0 0 C1 3 1 3 -0.125 5.4375 C-2.13592027 8.1857577 -4.25910398 9.99988669 -7 12 C-7.4375 9.9375 -7.4375 9.9375 -7 7 C-4.87919817 4.42739828 -2.49372439 2.20745501 0 0 Z " fill="#444440" transform="translate(7,130)"/>
<path d="M0 0 C1.32 0.66 2.64 1.32 4 2 C-1.0940919 7.88183807 -1.0940919 7.88183807 -4.875 8.375 C-5.57625 8.25125 -6.2775 8.1275 -7 8 C-6.02133662 6.85373678 -5.04205413 5.70800212 -4.0625 4.5625 C-3.51722656 3.92441406 -2.97195312 3.28632813 -2.41015625 2.62890625 C-1.63204305 1.73008851 -0.84063472 0.84063472 0 0 Z " fill="#434441" transform="translate(133,504)"/>
<path d="M0 0 C0.4375 2.125 0.4375 2.125 0 5 C-2.12689146 7.276147 -4.5023433 9.1458722 -7 11 C-7.375 8.875 -7.375 8.875 -7 6 C-2.32084309 0 -2.32084309 0 0 0 Z " fill="#444440" transform="translate(512,126)"/>
<path d="M0 0 C-5.0940919 5.88183807 -5.0940919 5.88183807 -8.875 6.375 C-9.57625 6.25125 -10.2775 6.1275 -11 6 C-4.94863014 -1.48458904 -4.94863014 -1.48458904 0 0 Z " fill="#444440" transform="translate(377,506)"/>
<path d="M0 0 C0.4375 2.125 0.4375 2.125 0 5 C-2.12689146 7.276147 -4.5023433 9.1458722 -7 11 C-6.71612495 6.93112431 -6.22537285 5.25917878 -3.5 2.125 C-1 0 -1 0 0 0 Z " fill="#444440" transform="translate(512,366)"/>
<path d="M0 0 C0.721875 0.12375 1.44375 0.2475 2.1875 0.375 C0.2075 2.685 -1.7725 4.995 -3.8125 7.375 C-5.1325 7.045 -6.4525 6.715 -7.8125 6.375 C-3.50480769 0.46730769 -3.50480769 0.46730769 0 0 Z " fill="#444440" transform="translate(379.8125,-0.375)"/>
<path d="M0 0 C0.66 1.32 1.32 2.64 2 4 C-0.31 5.98 -2.62 7.96 -5 10 C-5.3125 7.8125 -5.3125 7.8125 -5 5 C-2.5 2.1875 -2.5 2.1875 0 0 Z " fill="#444440" transform="translate(5,372)"/>
<path d="M0 0 C0.763125 0.0825 1.52625 0.165 2.3125 0.25 C1.125 2.25 1.125 2.25 -0.6875 4.25 C-3.375 4.5 -3.375 4.5 -5.6875 4.25 C-3.34903846 0.31153846 -3.34903846 0.31153846 0 0 Z " fill="#444440" transform="translate(151.6875,507.75)"/>
<path d="M0 0 C0.33 0 0.66 0 1 0 C1.042721 1.66611905 1.04063832 3.33382885 1 5 C0 6 0 6 -2.5625 6.0625 C-3.7690625 6.0315625 -3.7690625 6.0315625 -5 6 C-3.35830472 3.97945196 -1.69088222 1.97956942 0 0 Z " fill="#444440" transform="translate(511,506)"/>
<path d="M0 0 C0.25 2.3125 0.25 2.3125 0 5 C-2 6.8125 -2 6.8125 -4 8 C-4.36780384 3.46375267 -4.36780384 3.46375267 -2.5625 1.1875 C-1 0 -1 0 0 0 Z " fill="#444440" transform="translate(512,146)"/>
<path d="M0 0 C1.65 0 3.3 0 5 0 C3.75 2 3.75 2 2 4 C0.68 4 -0.64 4 -2 4 C-1.34 2.68 -0.68 1.36 0 0 Z " fill="#444440" transform="translate(357,0)"/>
<path d="M0 0 C0.763125 0.0825 1.52625 0.165 2.3125 0.25 C0.3125 3.25 0.3125 3.25 -2.8125 3.9375 C-3.76125 4.040625 -4.71 4.14375 -5.6875 4.25 C-3.34903846 0.31153846 -3.34903846 0.31153846 0 0 Z " fill="#444440" transform="translate(159.6875,-0.25)"/>
<path d="M0 0 C0.66 1.32 1.32 2.64 2 4 C0.68 4.99 -0.64 5.98 -2 7 C-2.125 4.625 -2.125 4.625 -2 2 C-1.34 1.34 -0.68 0.68 0 0 Z " fill="#444440" transform="translate(2,355)"/>
<path d="M0 0 C1 2 1 2 0.1875 4.5625 C-1 7 -1 7 -3 8 C-3.36923077 3.44615385 -3.36923077 3.44615385 -1.5 1.1875 C-1.005 0.795625 -0.51 0.40375 0 0 Z " fill="#424644" transform="translate(3,154)"/>
<path d="M0 0 C0.99 0.495 0.99 0.495 2 1 C1.01 1.495 1.01 1.495 0 2 C0 1.34 0 0.68 0 0 Z " fill="#444440" transform="translate(0,0)"/>
</svg>
